Antonio-Light.ufo
<glyph name="exclam" format="1">
  <advance width="540"/>
  <unicode hex="0021"/>
  <outline>
    <contour>
      <point x="175" y="0" type="line"/>
      <point x="361" y="0" type="line"/>
      <point x="361" y="202" type="line"/>
      <point x="175" y="202" type="line"/>
    </contour>
    <contour>
      <point x="239" y="368" type="line"/>
      <point x="299" y="368" type="line"/>
      <point x="364" y="1760" type="line"/>
      <point x="176" y="1760" type="line"/>
    </contour>
  </outline>
</glyph>
<glyph name="quotedbl" format="1">
  <advance width="944"/>
  <unicode hex="0022"/>
  <outline>
    <contour>
      <point x="325" y="1125" type="line"/>
      <point x="359" y="1125" type="line"/>
      <point x="423" y="1761" type="line"/>
      <point x="267" y="1761" type="line"/>
    </contour>
    <contour>
      <point x="593" y="1125" type="line"/>
      <point x="627" y="1125" type="line"/>
      <point x="692" y="1761" type="line"/>
      <point x="535" y="1761" type="line"/>
    </contour>
  </outline>
</glyph>
<glyph name="numbersign" format="1">
  <advance width="1288"/>
  <unicode hex="0023"/>
  <outline>
    <contour>
      <point x="215" y="0" type="line"/>
      <point x="344" y="0" type="line"/>
      <point x="475" y="670" type="line"/>
      <point x="691" y="670" type="line"/>
      <point x="561" y="0" type="line"/>
      <point x="690" y="0" type="line"/>
      <point x="823" y="670" type="line"/>
      <point x="1036" y="670" type="line"/>
      <point x="1036" y="767" type="line"/>
      <point x="842" y="767" type="line"/>
      <point x="896" y="1041" type="line"/>
      <point x="1079" y="1041" type="line"/>
      <point x="1079" y="1138" type="line"/>
      <point x="916" y="1138" type="line"/>
      <point x="1039" y="1761" type="line"/>
      <point x="909" y="1761" type="line"/>
      <point x="784" y="1138" type="line"/>
      <point x="568" y="1138" type="line"/>
      <point x="693" y="1761" type="line"/>
      <point x="563" y="1761" type="line"/>
      <point x="440" y="1138" type="line"/>
      <point x="224" y="1138" type="line"/>
      <point x="224" y="1041" type="line"/>
      <point x="421" y="1041" type="line"/>
      <point x="367" y="767" type="line"/>
      <point x="181" y="767" type="line"/>
      <point x="181" y="670" type="line"/>
      <point x="347" y="670" type="line"/>
    </contour>
    <contour>
      <point x="493" y="765" type="line"/>
      <point x="547" y="1035" type="line"/>
      <point x="766" y="1035" type="line"/>
      <point x="713" y="765" type="line"/>
    </contour>
  </outline>
</glyph>
<glyph name="dollar" format="1">
  <advance width="860"/>
  <unicode hex="0024"/>
  <outline>
    <contour>
      <point x="398" y="-271" type="line"/>
      <point x="505" y="-271" type="line"/>
      <point x="505" y="17" type="line"/>
      <point x="398" y="17" type="line"/>
    </contour>
    <contour>
      <point x="377" y="1468" type="line"/>
      <point x="484" y="1468" type="line"/>
      <point x="484" y="1760" type="line"/>
      <point x="377" y="1760" type="line"/>
    </contour>
    <component base="s" yOffset="-2"/>
  </outline>
</glyph>
<glyph name="percent" format="1">
  <advance width="2148"/>
  <unicode hex="0025"/>
  <outline>
    <contour>
      <point x="464" y="718" type="curve" smooth="yes"/>
      <point x="358" y="718"/>
      <point x="327" y="765"/>
      <point x="327" y="936" type="curve" smooth="yes"/>
      <point x="327" y="1436" type="line" smooth="yes"/>
      <point x="327" y="1601"/>
      <point x="359" y="1646"/>
      <point x="464" y="1646" type="curve" smooth="yes"/>
      <point x="570" y="1646"/>
      <point x="601" y="1601"/>
      <point x="601" y="1436" type="curve" smooth="yes"/>
      <point x="601" y="936" type="line" smooth="yes"/>
      <point x="601" y="765"/>
      <point x="571" y="718"/>
    </contour>
    <contour>
      <point x="464" y="581" type="curve" smooth="yes"/>
      <point x="688" y="581"/>
      <point x="749" y="672"/>
      <point x="749" y="1012" type="curve" smooth="yes"/>
      <point x="749" y="1364" type="line" smooth="yes"/>
      <point x="749" y="1691"/>
      <point x="687" y="1782"/>
      <point x="464" y="1782" type="curve" smooth="yes"/>
      <point x="242" y="1782"/>
      <point x="180" y="1691"/>
      <point x="180" y="1364" type="curve" smooth="yes"/>
      <point x="180" y="1012" type="line" smooth="yes"/>
      <point x="180" y="672"/>
      <point x="241" y="581"/>
    </contour>
    <contour>
      <point x="1684" y="117" type="curve" smooth="yes"/>
      <point x="1578" y="117"/>
      <point x="1547" y="164"/>
      <point x="1547" y="335" type="curve" smooth="yes"/>
      <point x="1547" y="835" type="line" smooth="yes"/>
      <point x="1547" y="1000"/>
      <point x="1578" y="1045"/>
      <point x="1684" y="1045" type="curve" smooth="yes"/>
      <point x="1789" y="1045"/>
      <point x="1821" y="1000"/>
      <point x="1821" y="835" type="curve" smooth="yes"/>
      <point x="1821" y="335" type="line" smooth="yes"/>
      <point x="1821" y="164"/>
      <point x="1790" y="117"/>
    </contour>
    <contour>
      <point x="1684" y="-20" type="curve" smooth="yes"/>
      <point x="1907" y="-20"/>
      <point x="1968" y="71"/>
      <point x="1968" y="411" type="curve" smooth="yes"/>
      <point x="1968" y="763" type="line" smooth="yes"/>
      <point x="1968" y="1090"/>
      <point x="1906" y="1181"/>
      <point x="1684" y="1181" type="curve" smooth="yes"/>
      <point x="1461" y="1181"/>
      <point x="1399" y="1090"/>
      <point x="1399" y="763" type="curve" smooth="yes"/>
      <point x="1399" y="411" type="line" smooth="yes"/>
      <point x="1399" y="71"/>
      <point x="1460" y="-20"/>
    </contour>
    <contour>
      <point x="642" y="0" type="line"/>
      <point x="790" y="0" type="line"/>
      <point x="1512" y="1760" type="line"/>
      <point x="1372" y="1760" type="line"/>
    </contour>
  </outline>
</glyph>
<glyph name="quotesingle" format="1">
  <advance width="404"/>
  <unicode hex="0027"/>
  <outline>
    <contour>
      <point x="184" y="1125" type="line"/>
      <point x="217" y="1125" type="line"/>
      <point x="282" y="1761" type="line"/>
      <point x="124" y="1761" type="line"/>
    </contour>
  </outline>
</glyph>
<glyph name="parenright" format="1">
  <advance width="519"/>
  <unicode hex="0029"/>
  <outline>
    <contour>
      <point x="98" y="-99" type="line"/>
      <point x="335" y="-99"/>
      <point x="386" y="-50"/>
      <point x="386" y="313" type="curve" smooth="yes"/>
      <point x="386" y="1388" type="line" smooth="yes"/>
      <point x="386" y="1751"/>
      <point x="335" y="1800"/>
      <point x="98" y="1800" type="curve"/>
      <point x="98" y="1687" type="line"/>
      <point x="218" y="1687"/>
      <point x="237" y="1695"/>
      <point x="237" y="1392" type="curve" smooth="yes"/>
      <point x="237" y="309" type="line" smooth="yes"/>
      <point x="237" y="6"/>
      <point x="218" y="14"/>
      <point x="98" y="14" type="curve"/>
    </contour>
  </outline>
</glyph>
<glyph name="asterisk" format="1">
  <advance width="960"/>
  <unicode hex="002A"/>
  <outline>
    <contour>
      <point x="414" y="1081" type="line"/>
      <point x="547" y="1081" type="line"/>
      <point x="527" y="1353" type="line"/>
      <point x="751" y="1176" type="line"/>
      <point x="819" y="1293" type="line"/>
      <point x="569" y="1433" type="line"/>
      <point x="819" y="1565" type="line"/>
      <point x="751" y="1681" type="line"/>
      <point x="527" y="1509" type="line"/>
      <point x="547" y="1777" type="line"/>
      <point x="414" y="1777" type="line"/>
      <point x="438" y="1508" type="line"/>
      <point x="209" y="1671" type="line"/>
      <point x="141" y="1555" type="line"/>
      <point x="391" y="1433" type="line"/>
      <point x="149" y="1303" type="line"/>
      <point x="216" y="1185" type="line"/>
      <point x="438" y="1357" type="line"/>
    </contour>
  </outline>
</glyph>
<glyph name="plus" format="1">
  <advance width="808"/>
  <unicode hex="002B"/>
  <outline>
    <contour>
      <point x="342" y="576" type="line"/>
      <point x="460" y="576" type="line"/>
      <point x="460" y="842" type="line"/>
      <point x="694" y="842" type="line"/>
      <point x="694" y="948" type="line"/>
      <point x="460" y="948" type="line"/>
      <point x="460" y="1208" type="line"/>
      <point x="342" y="1208" type="line"/>
      <point x="342" y="948" type="line"/>
      <point x="112" y="948" type="line"/>
      <point x="112" y="842" type="line"/>
      <point x="342" y="842" type="line"/>
    </contour>
  </outline>
</glyph>
<glyph name="comma" format="1">
  <advance width="437"/>
  <unicode hex="002C"/>
  <outline>
    <contour>
      <point x="167" y="-350" type="line"/>
      <point x="251" y="-350" type="line"/>
      <point x="351" y="9" type="line"/>
      <point x="351" y="204" type="line"/>
      <point x="121" y="204" type="line"/>
      <point x="121" y="0" type="line"/>
      <point x="243" y="0" type="line"/>
    </contour>
  </outline>
</glyph>
<glyph name="period" format="1">
  <advance width="532"/>
  <unicode hex="002E"/>
  <outline>
    <contour>
      <point x="192" y="0" type="line"/>
      <point x="319" y="0" type="line"/>
      <point x="319" y="153" type="line"/>
      <point x="192" y="153" type="line"/>
    </contour>
  </outline>
</glyph>
<glyph name="zero" format="1">
  <advance width="826"/>
  <unicode hex="0030"/>
  <outline>
    <contour>
      <point x="409" y="102" type="curve" smooth="yes"/>
      <point x="327" y="102"/>
      <point x="248" y="95"/>
      <point x="248" y="470" type="curve" smooth="yes"/>
      <point x="248" y="1328" type="line" smooth="yes"/>
      <point x="248" y="1661"/>
      <point x="341" y="1657"/>
      <point x="409" y="1657" type="curve" smooth="yes"/>
      <point x="479" y="1657"/>
      <point x="580" y="1662"/>
      <point x="580" y="1327" type="curve" smooth="yes"/>
      <point x="580" y="470" type="line" smooth="yes"/>
      <point x="580" y="94"/>
      <point x="486" y="102"/>
    </contour>
    <contour>
      <point x="412" y="-21" type="curve" smooth="yes"/>
      <point x="700" y="-21"/>
      <point x="729" y="162"/>
      <point x="729" y="475" type="curve" smooth="yes"/>
      <point x="729" y="1316" type="line" smooth="yes"/>
      <point x="729" y="1619"/>
      <point x="694" y="1781"/>
      <point x="412" y="1781" type="curve" smooth="yes"/>
      <point x="130" y="1781"/>
      <point x="100" y="1619"/>
      <point x="100" y="1316" type="curve" smooth="yes"/>
      <point x="100" y="475" type="line" smooth="yes"/>
      <point x="100" y="162"/>
      <point x="124" y="-21"/>
    </contour>
  </outline>
</glyph>
<glyph name="one" format="1">
  <advance width="616"/>
  <unicode hex="0031"/>
  <outline>
    <contour>
      <point x="271" y="0" type="line"/>
      <point x="420" y="0" type="line"/>
      <point x="420" y="1761" type="line"/>
      <point x="331" y="1761" type="line"/>
      <point x="275" y="1629"/>
      <point x="159" y="1556"/>
      <point x="53" y="1541" type="curve"/>
      <point x="53" y="1448" type="line"/>
      <point x="127" y="1448"/>
      <point x="223" y="1477"/>
      <point x="271" y="1534" type="curve"/>
    </contour>
  </outline>
</glyph>
<glyph name="two" format="1">
  <advance width="838"/>
  <unicode hex="0032"/>
  <outline>
    <contour>
      <point x="186" y="0" type="line"/>
      <point x="701" y="0" type="line"/>
      <point x="701" y="103" type="line"/>
      <point x="336" y="103" type="line"/>
      <point x="380" y="561"/>
      <point x="723" y="823"/>
      <point x="723" y="1293" type="curve" smooth="yes"/>
      <point x="723" y="1513"/>
      <point x="702" y="1780"/>
      <point x="484" y="1780" type="curve" smooth="yes"/>
      <point x="191" y="1780"/>
      <point x="183" y="1553"/>
      <point x="183" y="1173" type="curve" smooth="yes"/>
      <point x="183" y="1065" type="line"/>
      <point x="334" y="1065" type="line"/>
      <point x="334" y="1299" type="line" smooth="yes"/>
      <point x="334" y="1607"/>
      <point x="394" y="1655"/>
      <point x="461" y="1655" type="curve" smooth="yes"/>
      <point x="526" y="1655"/>
      <point x="580" y="1608"/>
      <point x="580" y="1315" type="curve" smooth="yes"/>
      <point x="580" y="1193"/>
      <point x="550" y="1022"/>
      <point x="510" y="937" type="curve" smooth="yes"/>
      <point x="520" y="952"/>
      <point x="394" y="686"/>
      <point x="398" y="691" type="curve" smooth="yes"/>
      <point x="294" y="467"/>
      <point x="186" y="205"/>
      <point x="186" y="92" type="curve" smooth="yes"/>
    </contour>
  </outline>
</glyph>
<glyph name="three" format="1">
  <advance width="860"/>
  <unicode hex="0033"/>
  <outline>
    <contour>
      <point x="428" y="-20" type="curve" smooth="yes"/>
      <point x="650" y="-20"/>
      <point x="748" y="137"/>
      <point x="748" y="468" type="curve" smooth="yes"/>
      <point x="748" y="662"/>
      <point x="695" y="858"/>
      <point x="570" y="914" type="curve"/>
      <point x="697" y="962"/>
      <point x="745" y="1118"/>
      <point x="745" y="1321" type="curve" smooth="yes"/>
      <point x="745" y="1623"/>
      <point x="654" y="1780"/>
      <point x="429" y="1780" type="curve" smooth="yes"/>
      <point x="205" y="1780"/>
      <point x="128" y="1622"/>
      <point x="128" y="1321" type="curve" smooth="yes"/>
      <point x="128" y="1287" type="line"/>
      <point x="279" y="1287" type="line"/>
      <point x="279" y="1318" type="line" smooth="yes"/>
      <point x="279" y="1597"/>
      <point x="338" y="1655"/>
      <point x="426" y="1655" type="curve" smooth="yes"/>
      <point x="518" y="1655"/>
      <point x="595" y="1610"/>
      <point x="595" y="1322" type="curve" smooth="yes"/>
      <point x="595" y="1014"/>
      <point x="529" y="982"/>
      <point x="382" y="982" type="curve" smooth="yes"/>
      <point x="345" y="982" type="line"/>
      <point x="345" y="854" type="line"/>
      <point x="384" y="854" type="line" smooth="yes"/>
      <point x="533" y="854"/>
      <point x="598" y="771"/>
      <point x="598" y="472" type="curve" smooth="yes"/>
      <point x="598" y="197"/>
      <point x="561" y="104"/>
      <point x="429" y="104" type="curve" smooth="yes"/>
      <point x="295" y="104"/>
      <point x="274" y="184"/>
      <point x="274" y="474" type="curve" smooth="yes"/>
      <point x="274" y="517" type="line"/>
      <point x="122" y="517" type="line"/>
      <point x="122" y="474" type="line" smooth="yes"/>
      <point x="122" y="141"/>
      <point x="204" y="-20"/>
    </contour>
  </outline>
</glyph>
<glyph name="four" format="1">
  <advance width="838"/>
  <unicode hex="0034"/>
  <outline>
    <contour>
      <point x="500" y="-1" type="line"/>
      <point x="640" y="-1" type="line"/>
      <point x="640" y="352" type="line"/>
      <point x="794" y="352" type="line"/>
      <point x="794" y="468" type="line"/>
      <point x="640" y="468" type="line"/>
      <point x="640" y="1761" type="line"/>
      <point x="496" y="1761" type="line"/>
      <point x="102" y="449" type="line"/>
      <point x="102" y="352" type="line"/>
      <point x="500" y="352" type="line"/>
    </contour>
    <contour>
      <point x="237" y="468" type="line"/>
      <point x="500" y="1428" type="line"/>
      <point x="500" y="468" type="line"/>
    </contour>
  </outline>
</glyph>
<glyph name="five" format="1">
  <advance width="838"/>
  <unicode hex="0035"/>
  <outline>
    <contour>
      <point x="401" y="-20" type="curve" smooth="yes"/>
      <point x="639" y="-20"/>
      <point x="656" y="139"/>
      <point x="656" y="668" type="curve" smooth="yes"/>
      <point x="656" y="1164"/>
      <point x="562" y="1221"/>
      <point x="423" y="1221" type="curve" smooth="yes"/>
      <point x="370" y="1221"/>
      <point x="312" y="1200"/>
      <point x="293" y="1163" type="curve"/>
      <point x="293" y="1624" type="line"/>
      <point x="618" y="1624" type="line"/>
      <point x="618" y="1760" type="line"/>
      <point x="158" y="1760" type="line"/>
      <point x="158" y="910" type="line"/>
      <point x="282" y="888" type="line"/>
      <point x="282" y="1028"/>
      <point x="336" y="1091"/>
      <point x="403" y="1091" type="curve" smooth="yes"/>
      <point x="486" y="1091"/>
      <point x="515" y="1021"/>
      <point x="515" y="869" type="curve" smooth="yes"/>
      <point x="515" y="274" type="line" smooth="yes"/>
      <point x="515" y="158"/>
      <point x="477" y="102"/>
      <point x="401" y="102" type="curve" smooth="yes"/>
      <point x="316" y="102"/>
      <point x="286" y="171"/>
      <point x="286" y="263" type="curve" smooth="yes"/>
      <point x="286" y="459" type="line"/>
      <point x="134" y="459" type="line"/>
      <point x="134" y="291" type="line" smooth="yes"/>
      <point x="134" y="141"/>
      <point x="180" y="-20"/>
    </contour>
  </outline>
</glyph>
<glyph name="six" format="1">
  <advance width="838"/>
  <unicode hex="0036"/>
  <outline>
    <contour>
      <point x="443" y="-20" type="curve" smooth="yes"/>
      <point x="697" y="-20"/>
      <point x="765" y="145"/>
      <point x="765" y="442" type="curve" smooth="yes"/>
      <point x="765" y="559" type="line" smooth="yes"/>
      <point x="765" y="960"/>
      <point x="691" y="1113"/>
      <point x="437" y="1102" type="curve" smooth="yes"/>
      <point x="379" y="1100"/>
      <point x="303" y="1071"/>
      <point x="260" y="1013" type="curve"/>
      <point x="260" y="1255" type="line" smooth="yes"/>
      <point x="260" y="1574"/>
      <point x="290" y="1655"/>
      <point x="422" y="1655" type="curve" smooth="yes"/>
      <point x="552" y="1655"/>
      <point x="561" y="1574"/>
      <point x="562" y="1283" type="curve" smooth="yes"/>
      <point x="562" y="1271"/>
      <point x="562" y="1264"/>
      <point x="562" y="1252" type="curve"/>
      <point x="714" y="1252" type="line"/>
      <point x="714" y="1268"/>
      <point x="714" y="1269"/>
      <point x="714" y="1284" type="curve" smooth="yes"/>
      <point x="710" y="1619"/>
      <point x="680" y="1780"/>
      <point x="429" y="1780" type="curve" smooth="yes"/>
      <point x="174" y="1780"/>
      <point x="112" y="1620"/>
      <point x="112" y="1264" type="curve" smooth="yes"/>
      <point x="112" y="506" type="line" smooth="yes"/>
      <point x="112" y="210"/>
      <point x="170" y="-20"/>
    </contour>
    <contour>
      <point x="443" y="107" type="curve" smooth="yes"/>
      <point x="293" y="107"/>
      <point x="260" y="226"/>
      <point x="260" y="504" type="curve" smooth="yes"/>
      <point x="260" y="926" type="line"/>
      <point x="279" y="931"/>
      <point x="355" y="978"/>
      <point x="449" y="978" type="curve" smooth="yes"/>
      <point x="586" y="978"/>
      <point x="615" y="870"/>
      <point x="615" y="547" type="curve" smooth="yes"/>
      <point x="615" y="446" type="line" smooth="yes"/>
      <point x="615" y="170"/>
      <point x="577" y="107"/>
    </contour>
  </outline>
</glyph>
<glyph name="seven" format="1">
  <advance width="838"/>
  <unicode hex="0037"/>
  <outline>
    <contour>
      <point x="417" y="1" type="curve"/>
      <point x="446" y="454"/>
      <point x="532" y="874"/>
      <point x="608" y="1175" type="curve" smooth="yes"/>
      <point x="687" y="1485"/>
      <point x="756" y="1674"/>
      <point x="754" y="1653" type="curve"/>
      <point x="754" y="1761" type="line"/>
      <point x="121" y="1761" type="line"/>
      <point x="121" y="1644" type="line"/>
      <point x="624" y="1644" type="line"/>
      <point x="626" y="1649"/>
      <point x="548" y="1472"/>
      <point x="460" y="1165" type="curve" smooth="yes"/>
      <point x="384" y="886"/>
      <point x="300" y="477"/>
      <point x="262" y="1" type="curve"/>
      <point x="259" y="1"/>
      <point x="417" y="1"/>
    </contour>
  </outline>
</glyph>
<glyph name="eight" format="1">
  <advance width="838"/>
  <unicode hex="0038"/>
  <outline>
    <contour>
      <point x="424" y="-20" type="curve" smooth="yes"/>
      <point x="641" y="-20"/>
      <point x="717" y="107"/>
      <point x="724" y="413" type="curve" smooth="yes"/>
      <point x="724" y="426"/>
      <point x="724" y="420"/>
      <point x="724" y="434" type="curve" smooth="yes"/>
      <point x="724" y="636"/>
      <point x="667" y="864"/>
      <point x="574" y="931" type="curve"/>
      <point x="681" y="1004"/>
      <point x="720" y="1142"/>
      <point x="720" y="1347" type="curve" smooth="yes"/>
      <point x="720" y="1648"/>
      <point x="651" y="1780"/>
      <point x="427" y="1780" type="curve" smooth="yes"/>
      <point x="201" y="1780"/>
      <point x="131" y="1649"/>
      <point x="131" y="1347" type="curve" smooth="yes"/>
      <point x="131" y="1145"/>
      <point x="164" y="1001"/>
      <point x="268" y="927" type="curve"/>
      <point x="170" y="860"/>
      <point x="113" y="639"/>
      <point x="113" y="434" type="curve" smooth="yes"/>
      <point x="113" y="417"/>
      <point x="114" y="420"/>
      <point x="114" y="403" type="curve" smooth="yes"/>
      <point x="123" y="105"/>
      <point x="210" y="-20"/>
    </contour>
    <contour>
      <point x="426" y="103" type="curve" smooth="yes"/>
      <point x="295" y="103"/>
      <point x="264" y="181"/>
      <point x="262" y="431" type="curve" smooth="yes"/>
      <point x="262" y="439"/>
      <point x="262" y="420"/>
      <point x="262" y="428" type="curve" smooth="yes"/>
      <point x="262" y="740"/>
      <point x="348" y="869"/>
      <point x="426" y="869" type="curve" smooth="yes"/>
      <point x="510" y="869"/>
      <point x="576" y="742"/>
      <point x="576" y="432" type="curve" smooth="yes"/>
      <point x="576" y="426"/>
      <point x="576" y="445"/>
      <point x="576" y="439" type="curve" smooth="yes"/>
      <point x="575" y="178"/>
      <point x="556" y="103"/>
    </contour>
    <contour>
      <point x="424" y="982" type="curve" smooth="yes"/>
      <point x="340" y="982"/>
      <point x="280" y="1049"/>
      <point x="280" y="1348" type="curve" smooth="yes"/>
      <point x="280" y="1619"/>
      <point x="335" y="1653"/>
      <point x="424" y="1653" type="curve" smooth="yes"/>
      <point x="516" y="1653"/>
      <point x="571" y="1634"/>
      <point x="571" y="1353" type="curve" smooth="yes"/>
      <point x="571" y="1050"/>
      <point x="503" y="982"/>
    </contour>
  </outline>
</glyph>
<glyph name="nine" format="1">
  <advance width="838"/>
  <unicode hex="0039"/>
  <outline>
    <contour>
      <point x="384" y="-20" type="curve" smooth="yes"/>
      <point x="640" y="-20"/>
      <point x="666" y="186"/>
      <point x="666" y="542" type="curve" smooth="yes"/>
      <point x="666" y="1254" type="line" smooth="yes"/>
      <point x="666" y="1548"/>
      <point x="641" y="1780"/>
      <point x="368" y="1780" type="curve" smooth="yes"/>
      <point x="92" y="1780"/>
      <point x="67" y="1549"/>
      <point x="67" y="1252" type="curve" smooth="yes"/>
      <point x="67" y="1226" type="line" smooth="yes"/>
      <point x="67" y="857"/>
      <point x="117" y="662"/>
      <point x="360" y="662" type="curve" smooth="yes"/>
      <point x="419" y="662"/>
      <point x="481" y="678"/>
      <point x="516" y="712" type="curve"/>
      <point x="516" y="523" type="line" smooth="yes"/>
      <point x="516" y="226"/>
      <point x="524" y="103"/>
      <point x="397" y="103" type="curve" smooth="yes"/>
      <point x="277" y="103"/>
      <point x="252" y="157"/>
      <point x="250" y="483" type="curve" smooth="yes"/>
      <point x="250" y="493"/>
      <point x="250" y="498"/>
      <point x="250" y="508" type="curve"/>
      <point x="107" y="508" type="line"/>
      <point x="107" y="491"/>
      <point x="107" y="489"/>
      <point x="108" y="473" type="curve" smooth="yes"/>
      <point x="113" y="140"/>
      <point x="166" y="-20"/>
    </contour>
    <contour>
      <point x="374" y="776" type="curve" smooth="yes"/>
      <point x="238" y="776"/>
      <point x="217" y="885"/>
      <point x="217" y="1208" type="curve" smooth="yes"/>
      <point x="217" y="1257" type="line" smooth="yes"/>
      <point x="217" y="1518"/>
      <point x="234" y="1653"/>
      <point x="369" y="1653" type="curve" smooth="yes"/>
      <point x="497" y="1653"/>
      <point x="516" y="1518"/>
      <point x="516" y="1255" type="curve" smooth="yes"/>
      <point x="516" y="803" type="line"/>
      <point x="496" y="794"/>
      <point x="449" y="776"/>
    </contour>
  </outline>
</glyph>
<glyph name="colon" format="1">
  <advance width="555"/>
  <unicode hex="003A"/>
  <outline>
    <contour>
      <point x="167" y="270" type="line"/>
      <point x="388" y="270" type="line"/>
      <point x="388" y="502" type="line"/>
      <point x="167" y="502" type="line"/>
    </contour>
    <contour>
      <point x="167" y="1075" type="line"/>
      <point x="388" y="1075" type="line"/>
      <point x="388" y="1307" type="line"/>
      <point x="167" y="1307" type="line"/>
    </contour>
  </outline>
</glyph>
<glyph name="semicolon" format="1">
  <advance width="561"/>
  <unicode hex="003B"/>
  <outline>
    <contour>
      <point x="195" y="-99" type="line"/>
      <point x="302" y="-99" type="line"/>
      <point x="422" y="316" type="line"/>
      <point x="422" y="534" type="line"/>
      <point x="154" y="534" type="line"/>
      <point x="154" y="307" type="line"/>
      <point x="288" y="307" type="line"/>
    </contour>
    <contour>
      <point x="139" y="963" type="line"/>
      <point x="402" y="963" type="line"/>
      <point x="402" y="1219" type="line"/>
      <point x="139" y="1219" type="line"/>
    </contour>
  </outline>
</glyph>
<glyph name="equal" format="1">
  <advance width="722"/>
  <unicode hex="003D"/>
  <outline>
    <contour>
      <point x="104" y="601" type="line"/>
      <point x="618" y="601" type="line"/>
      <point x="618" y="733" type="line"/>
      <point x="104" y="733" type="line"/>
    </contour>
    <contour>
      <point x="104" y="892" type="line"/>
      <point x="618" y="892" type="line"/>
      <point x="618" y="1025" type="line"/>
      <point x="104" y="1025" type="line"/>
    </contour>
  </outline>
</glyph>
<glyph name="question" format="1">
  <advance width="708"/>
  <unicode hex="003F"/>
  <outline>
    <contour>
      <point x="228" y="494" type="line"/>
      <point x="353" y="494" type="line"/>
      <point x="353" y="750" type="line"/>
      <point x="562" y="808"/>
      <point x="623" y="968"/>
      <point x="623" y="1314" type="curve" smooth="yes"/>
      <point x="623" y="1590"/>
      <point x="631" y="1782"/>
      <point x="392" y="1782" type="curve" smooth="yes"/>
      <point x="121" y="1782"/>
      <point x="158" y="1510"/>
      <point x="158" y="1365" type="curve" smooth="yes"/>
      <point x="158" y="1160" type="line"/>
      <point x="308" y="1160" type="line"/>
      <point x="308" y="1375" type="line" smooth="yes"/>
      <point x="308" y="1596"/>
      <point x="309" y="1655"/>
      <point x="396" y="1655" type="curve" smooth="yes"/>
      <point x="476" y="1655"/>
      <point x="474" y="1588"/>
      <point x="474" y="1379" type="curve" smooth="yes"/>
      <point x="474" y="1035"/>
      <point x="476" y="901"/>
      <point x="228" y="810" type="curve"/>
    </contour>
    <contour>
      <point x="227" y="1" type="line"/>
      <point x="353" y="1" type="line"/>
      <point x="353" y="299" type="line"/>
      <point x="227" y="299" type="line"/>
    </contour>
  </outline>
</glyph>
<glyph name="A" format="1">
  <advance width="905"/>
  <unicode hex="0041"/>
  <outline>
    <contour>
      <point x="438" y="1760" type="move" name="top"/>
    </contour>
    <contour>
      <point x="813" y="10" type="move" name="ogonek"/>
    </contour>
    <contour>
      <point x="78" y="0" type="line"/>
      <point x="219" y="0" type="line"/>
      <point x="440" y="1454" type="line"/>
      <point x="442" y="1454" type="line"/>
      <point x="682" y="0" type="line"/>
      <point x="826" y="0" type="line"/>
      <point x="513" y="1760" type="line"/>
      <point x="361" y="1760" type="line"/>
    </contour>
    <contour>
      <point x="250" y="357" type="line"/>
      <point x="250" y="480" type="line"/>
      <point x="651" y="480" type="line"/>
      <point x="651" y="357" type="line"/>
    </contour>
  </outline>
</glyph>
<glyph name="B" format="1">
  <advance width="909"/>
  <unicode hex="0042"/>
  <outline>
    <contour>
      <point x="178" y="0" type="line"/>
      <point x="480" y="0" type="line" smooth="yes"/>
      <point x="724" y="0"/>
      <point x="782" y="152"/>
      <point x="787" y="487" type="curve" smooth="yes"/>
      <point x="787" y="518" type="line" smooth="yes"/>
      <point x="787" y="712"/>
      <point x="763" y="892"/>
      <point x="650" y="947" type="curve"/>
      <point x="748" y="1011"/>
      <point x="763" y="1136"/>
      <point x="763" y="1343" type="curve" smooth="yes"/>
      <point x="763" y="1366" type="line" smooth="yes"/>
      <point x="760" y="1647"/>
      <point x="709" y="1760"/>
      <point x="435" y="1760" type="curve" smooth="yes"/>
      <point x="178" y="1760" type="line"/>
    </contour>
    <contour>
      <point x="327" y="128" type="line"/>
      <point x="327" y="884" type="line"/>
      <point x="488" y="884" type="line" smooth="yes"/>
      <point x="614" y="884"/>
      <point x="638" y="781"/>
      <point x="638" y="520" type="curve" smooth="yes"/>
      <point x="638" y="536" type="line" smooth="yes"/>
      <point x="638" y="214"/>
      <point x="611" y="128"/>
      <point x="485" y="128" type="curve" smooth="yes"/>
    </contour>
    <contour>
      <point x="327" y="1004" type="line"/>
      <point x="327" y="1629" type="line"/>
      <point x="439" y="1629" type="line" smooth="yes"/>
      <point x="566" y="1629"/>
      <point x="612" y="1597"/>
      <point x="614" y="1345" type="curve" smooth="yes"/>
      <point x="614" y="1349" type="line" smooth="yes"/>
      <point x="614" y="1025"/>
      <point x="590" y="1004"/>
      <point x="461" y="1004" type="curve" smooth="yes"/>
    </contour>
  </outline>
</glyph>
<glyph name="C" format="1">
  <advance width="873"/>
  <unicode hex="0043"/>
  <outline>
    <contour>
      <point x="438" y="1760" type="move" name="top"/>
    </contour>
    <contour>
      <point x="440" y="0" type="move" name="bottom"/>
    </contour>
    <contour>
      <point x="443" y="-21" type="curve" smooth="yes"/>
      <point x="699" y="-21"/>
      <point x="745" y="183"/>
      <point x="745" y="552" type="curve" smooth="yes"/>
      <point x="745" y="692" type="line"/>
      <point x="595" y="692" type="line"/>
      <point x="595" y="551" type="line" smooth="yes"/>
      <point x="595" y="228"/>
      <point x="572" y="103"/>
      <point x="442" y="103" type="curve" smooth="yes"/>
      <point x="306" y="103"/>
      <point x="280" y="227"/>
      <point x="280" y="552" type="curve" smooth="yes"/>
      <point x="280" y="1258" type="line" smooth="yes"/>
      <point x="280" y="1520"/>
      <point x="315" y="1653"/>
      <point x="448" y="1653" type="curve" smooth="yes"/>
      <point x="577" y="1653"/>
      <point x="595" y="1518"/>
      <point x="595" y="1257" type="curve" smooth="yes"/>
      <point x="595" y="1087" type="line"/>
      <point x="746" y="1087" type="line"/>
      <point x="746" y="1239" type="line" smooth="yes"/>
      <point x="746" y="1545"/>
      <point x="734" y="1781"/>
      <point x="449" y="1781" type="curve" smooth="yes"/>
      <point x="169" y="1781"/>
      <point x="131" y="1550"/>
      <point x="131" y="1251" type="curve" smooth="yes"/>
      <point x="131" y="550" type="line" smooth="yes"/>
      <point x="131" y="180"/>
      <point x="185" y="-21"/>
    </contour>
  </outline>
</glyph>
<glyph name="D" format="1">
  <advance width="895"/>
  <unicode hex="0044"/>
  <outline>
    <contour>
      <point x="435" y="1760" type="move" name="top"/>
    </contour>
    <contour>
      <point x="259" y="901" type="move" name="center"/>
    </contour>
    <contour>
      <point x="302" y="128" type="line"/>
      <point x="302" y="1636" type="line"/>
      <point x="434" y="1636" type="line" smooth="yes"/>
      <point x="558" y="1636"/>
      <point x="616" y="1534"/>
      <point x="616" y="1274" type="curve" smooth="yes"/>
      <point x="617" y="519" type="line" smooth="yes"/>
      <point x="617" y="194"/>
      <point x="554" y="128"/>
      <point x="425" y="128" type="curve" smooth="yes"/>
    </contour>
    <contour>
      <point x="154" y="0" type="line"/>
      <point x="419" y="0" type="line" smooth="yes"/>
      <point x="674" y="0"/>
      <point x="766" y="138"/>
      <point x="766" y="504" type="curve" smooth="yes"/>
      <point x="765" y="1258" type="line" smooth="yes"/>
      <point x="765" y="1564"/>
      <point x="710" y="1760"/>
      <point x="425" y="1760" type="curve" smooth="yes"/>
      <point x="154" y="1760" type="line"/>
    </contour>
  </outline>
</glyph>
<glyph name="E" format="1">
  <advance width="728"/>
  <unicode hex="0045"/>
  <outline>
    <contour>
      <point x="394" y="1760" type="move" name="top"/>
    </contour>
    <contour>
      <point x="658" y="10" type="move" name="ogonek"/>
    </contour>
    <contour>
      <point x="437" y="-2" type="move" name="bottom"/>
    </contour>
    <contour>
      <point x="156" y="0" type="line"/>
      <point x="618" y="0" type="line"/>
      <point x="618" y="118" type="line"/>
      <point x="305" y="118" type="line"/>
      <point x="305" y="835" type="line"/>
      <point x="602" y="835" type="line"/>
      <point x="602" y="956" type="line"/>
      <point x="305" y="956" type="line"/>
      <point x="305" y="1644" type="line"/>
      <point x="621" y="1644" type="line"/>
      <point x="621" y="1760" type="line"/>
      <point x="156" y="1760" type="line"/>
    </contour>
  </outline>
</glyph>
<glyph name="F" format="1">
  <advance width="700"/>
  <unicode hex="0046"/>
  <outline>
    <contour>
      <point x="154" y="0" type="line"/>
      <point x="302" y="0" type="line"/>
      <point x="302" y="886" type="line"/>
      <point x="599" y="886" type="line"/>
      <point x="599" y="1005" type="line"/>
      <point x="302" y="1005" type="line"/>
      <point x="302" y="1644" type="line"/>
      <point x="616" y="1644" type="line"/>
      <point x="616" y="1760" type="line"/>
      <point x="154" y="1760" type="line"/>
    </contour>
  </outline>
</glyph>
<glyph name="G" format="1">
  <advance width="882"/>
  <unicode hex="0047"/>
  <outline>
    <contour>
      <point x="453" y="1760" type="move" name="top"/>
    </contour>
    <contour>
      <point x="453" y="0" type="move" name="bottom"/>
    </contour>
    <contour>
      <point x="414" y="-16" type="curve" smooth="yes"/>
      <point x="523" y="-16"/>
      <point x="583" y="23"/>
      <point x="630" y="102" type="curve"/>
      <point x="646" y="0" type="line"/>
      <point x="744" y="0" type="line"/>
      <point x="744" y="890" type="line"/>
      <point x="445" y="890" type="line"/>
      <point x="445" y="763" type="line"/>
      <point x="596" y="763" type="line"/>
      <point x="596" y="541" type="line" smooth="yes"/>
      <point x="596" y="226"/>
      <point x="567" y="103"/>
      <point x="440" y="103" type="curve" smooth="yes"/>
      <point x="307" y="103"/>
      <point x="280" y="225"/>
      <point x="280" y="543" type="curve" smooth="yes"/>
      <point x="280" y="1261" type="line" smooth="yes"/>
      <point x="280" y="1551"/>
      <point x="320" y="1653"/>
      <point x="446" y="1653" type="curve" smooth="yes"/>
      <point x="568" y="1653"/>
      <point x="592" y="1555"/>
      <point x="592" y="1372" type="curve" smooth="yes"/>
      <point x="592" y="1100" type="line"/>
      <point x="744" y="1100" type="line"/>
      <point x="744" y="1247" type="line" smooth="yes"/>
      <point x="744" y="1547"/>
      <point x="727" y="1781"/>
      <point x="451" y="1781" type="curve" smooth="yes"/>
      <point x="169" y="1781"/>
      <point x="131" y="1546"/>
      <point x="131" y="1245" type="curve" smooth="yes"/>
      <point x="131" y="532" type="line" smooth="yes"/>
      <point x="131" y="139"/>
      <point x="218" y="-16"/>
    </contour>
  </outline>
</glyph>
<glyph name="H" format="1">
  <advance width="932"/>
  <unicode hex="0048"/>
  <outline>
    <contour>
      <point x="156" y="0" type="line"/>
      <point x="305" y="0" type="line"/>
      <point x="305" y="886" type="line"/>
      <point x="627" y="886" type="line"/>
      <point x="627" y="0" type="line"/>
      <point x="776" y="0" type="line"/>
      <point x="776" y="1760" type="line"/>
      <point x="627" y="1760" type="line"/>
      <point x="627" y="998" type="line"/>
      <point x="305" y="998" type="line"/>
      <point x="305" y="1760" type="line"/>
      <point x="156" y="1760" type="line"/>
    </contour>
  </outline>
</glyph>
<glyph name="J" format="1">
  <advance width="798"/>
  <unicode hex="004A"/>
  <outline>
    <contour>
      <point x="424" y="1760" type="move" name="top"/>
    </contour>
    <contour>
      <point x="377" y="-21" type="curve" smooth="yes"/>
      <point x="572" y="-21"/>
      <point x="646" y="118"/>
      <point x="646" y="420" type="curve" smooth="yes"/>
      <point x="646" y="1760" type="line"/>
      <point x="497" y="1760" type="line"/>
      <point x="497" y="418" type="line" smooth="yes"/>
      <point x="497" y="234"/>
      <point x="503" y="103"/>
      <point x="371" y="103" type="curve" smooth="yes"/>
      <point x="241" y="103"/>
      <point x="245" y="241"/>
      <point x="245" y="402" type="curve" smooth="yes"/>
      <point x="245" y="540" type="line"/>
      <point x="94" y="540" type="line"/>
      <point x="94" y="389" type="line" smooth="yes"/>
      <point x="94" y="112"/>
      <point x="160" y="-21"/>
    </contour>
  </outline>
</glyph>
<glyph name="K" format="1">
  <advance width="823"/>
  <unicode hex="004B"/>
  <outline>
    <contour>
      <point x="416" y="-176" type="move" name="top"/>
    </contour>
    <contour>
      <point x="420" y="0" type="move" name="bottom"/>
    </contour>
    <contour>
      <point x="156" y="0" type="line"/>
      <point x="307" y="0" type="line"/>
      <point x="307" y="860" type="line"/>
      <point x="673" y="0" type="line"/>
      <point x="827" y="0" type="line"/>
      <point x="442" y="891" type="line"/>
      <point x="804" y="1760" type="line"/>
      <point x="660" y="1760" type="line"/>
      <point x="305" y="893" type="line"/>
      <point x="305" y="1760" type="line"/>
      <point x="156" y="1760" type="line"/>
    </contour>
  </outline>
</glyph>
<glyph name="L" format="1">
  <advance width="666"/>
  <unicode hex="004C"/>
  <outline>
    <contour>
      <point x="343" y="1760" type="move" name="top"/>
    </contour>
    <contour>
      <point x="398" y="0" type="move" name="bottom"/>
    </contour>
    <contour>
      <point x="156" y="0" type="line"/>
      <point x="617" y="0" type="line"/>
      <point x="617" y="118" type="line"/>
      <point x="305" y="118" type="line"/>
      <point x="305" y="1760" type="line"/>
      <point x="156" y="1760" type="line"/>
    </contour>
  </outline>
</glyph>
<glyph name="M" format="1">
  <advance width="1182"/>
  <unicode hex="004D"/>
  <outline>
    <contour>
      <point x="596" y="1760" type="move" name="top"/>
    </contour>
    <contour>
      <point x="156" y="0" type="line"/>
      <point x="288" y="0" type="line"/>
      <point x="288" y="754" type="line"/>
      <point x="265" y="1463" type="line"/>
      <point x="515" y="-2" type="line"/>
      <point x="677" y="-2" type="line"/>
      <point x="918" y="1463" type="line"/>
      <point x="895" y="754" type="line"/>
      <point x="895" y="0" type="line"/>
      <point x="1026" y="0" type="line"/>
      <point x="1026" y="1760" type="line"/>
      <point x="839" y="1760" type="line"/>
      <point x="596" y="162" type="line"/>
      <point x="343" y="1760" type="line"/>
      <point x="156" y="1760" type="line"/>
    </contour>
  </outline>
</glyph>
<glyph name="N" format="1">
  <advance width="963"/>
  <unicode hex="004E"/>
  <outline>
    <contour>
      <point x="481" y="1760" type="move" name="top"/>
    </contour>
    <contour>
      <point x="481" y="0" type="move" name="bottom"/>
    </contour>
    <contour>
      <point x="156" y="0" type="line"/>
      <point x="294" y="0" type="line"/>
      <point x="294" y="890" type="line"/>
      <point x="284" y="1316" type="line"/>
      <point x="691" y="0" type="line"/>
      <point x="807" y="0" type="line"/>
      <point x="807" y="1760" type="line"/>
      <point x="679" y="1760" type="line"/>
      <point x="679" y="965" type="line"/>
      <point x="702" y="429" type="line"/>
      <point x="260" y="1760" type="line"/>
      <point x="156" y="1760" type="line"/>
    </contour>
  </outline>
</glyph>
<glyph name="O" format="1">
  <advance width="881"/>
  <unicode hex="004F"/>
  <outline>
    <contour>
      <point x="441" y="1759" type="move" name="top"/>
    </contour>
    <contour>
      <point x="442" y="107" type="curve" smooth="yes"/>
      <point x="309" y="107"/>
      <point x="280" y="196"/>
      <point x="280" y="519" type="curve" smooth="yes"/>
      <point x="280" y="1281" type="line" smooth="yes"/>
      <point x="280" y="1543"/>
      <point x="315" y="1655"/>
      <point x="449" y="1655" type="curve" smooth="yes"/>
      <point x="576" y="1655"/>
      <point x="601" y="1545"/>
      <point x="601" y="1280" type="curve" smooth="yes"/>
      <point x="601" y="519" type="line" smooth="yes"/>
      <point x="601" y="196"/>
      <point x="570" y="107"/>
    </contour>
    <contour>
      <point x="442" y="-20" type="curve" smooth="yes"/>
      <point x="697" y="-20"/>
      <point x="750" y="151"/>
      <point x="750" y="519" type="curve" smooth="yes"/>
      <point x="750" y="1268" type="line" smooth="yes"/>
      <point x="750" y="1571"/>
      <point x="731" y="1782"/>
      <point x="449" y="1782" type="curve" smooth="yes"/>
      <point x="167" y="1782"/>
      <point x="131" y="1571"/>
      <point x="131" y="1268" type="curve" smooth="yes"/>
      <point x="131" y="519" type="line" smooth="yes"/>
      <point x="131" y="151"/>
      <point x="187" y="-20"/>
    </contour>
  </outline>
</glyph>
<glyph name="P" format="1">
  <advance width="839"/>
  <unicode hex="0050"/>
  <outline>
    <contour>
      <point x="444" y="1760" type="move" name="top"/>
    </contour>
    <contour>
      <point x="156" y="0" type="line"/>
      <point x="305" y="0" type="line"/>
      <point x="305" y="689" type="line"/>
      <point x="453" y="689" type="line" smooth="yes"/>
      <point x="708" y="689"/>
      <point x="767" y="863"/>
      <point x="767" y="1231" type="curve" smooth="yes"/>
      <point x="767" y="1229"/>
      <point x="767" y="1250"/>
      <point x="767" y="1249" type="curve" smooth="yes"/>
      <point x="768" y="1548"/>
      <point x="745" y="1760"/>
      <point x="462" y="1760" type="curve" smooth="yes"/>
      <point x="156" y="1760" type="line"/>
    </contour>
    <contour>
      <point x="305" y="815" type="line"/>
      <point x="305" y="1636" type="line"/>
      <point x="470" y="1636" type="line" smooth="yes"/>
      <point x="594" y="1636"/>
      <point x="619" y="1520"/>
      <point x="618" y="1263" type="curve" smooth="yes"/>
      <point x="618" y="1264"/>
      <point x="618" y="1228"/>
      <point x="618" y="1229" type="curve" smooth="yes"/>
      <point x="618" y="915"/>
      <point x="587" y="815"/>
      <point x="463" y="815" type="curve" smooth="yes"/>
    </contour>
  </outline>
</glyph>
<glyph name="Q" format="1">
  <advance width="879"/>
  <unicode hex="0051"/>
  <outline>
    <contour>
      <point x="622" y="-247" type="line"/>
      <point x="694" y="-176" type="line"/>
      <point x="518" y="27" type="line"/>
      <point x="409" y="-17" type="line"/>
    </contour>
    <component base="O"/>
  </outline>
</glyph>
<glyph name="R" format="1">
  <advance width="899"/>
  <unicode hex="0052"/>
  <outline>
    <contour>
      <point x="458" y="1760" type="move" name="top"/>
    </contour>
    <contour>
      <point x="458" y="0" type="move" name="bottom"/>
    </contour>
    <contour>
      <point x="156" y="0" type="line"/>
      <point x="305" y="0" type="line"/>
      <point x="305" y="868" type="line"/>
      <point x="304" y="868"/>
      <point x="464" y="858"/>
      <point x="463" y="858" type="curve" smooth="yes"/>
      <point x="623" y="858"/>
      <point x="619" y="798"/>
      <point x="619" y="557" type="curve" smooth="yes"/>
      <point x="619" y="82"/>
      <point x="620" y="41"/>
      <point x="641" y="0" type="curve"/>
      <point x="789" y="0" type="line"/>
      <point x="767" y="58"/>
      <point x="767" y="84"/>
      <point x="767" y="164" type="curve" smooth="yes"/>
      <point x="767" y="764"/>
      <point x="742" y="903"/>
      <point x="606" y="925" type="curve"/>
      <point x="729" y="959"/>
      <point x="768" y="1100"/>
      <point x="768" y="1326" type="curve" smooth="yes"/>
      <point x="768" y="1630"/>
      <point x="738" y="1760"/>
      <point x="455" y="1760" type="curve" smooth="yes"/>
      <point x="156" y="1760" type="line"/>
    </contour>
    <contour>
      <point x="304" y="968" type="line"/>
      <point x="304" y="1636" type="line"/>
      <point x="471" y="1636" type="line" smooth="yes"/>
      <point x="593" y="1636"/>
      <point x="619" y="1594"/>
      <point x="619" y="1335" type="curve" smooth="yes"/>
      <point x="619" y="1335"/>
      <point x="619" y="1321"/>
      <point x="619" y="1322" type="curve" smooth="yes"/>
      <point x="619" y="1006"/>
      <point x="588" y="968"/>
      <point x="460" y="968" type="curve" smooth="yes"/>
    </contour>
  </outline>
</glyph>
<glyph name="S" format="1">
  <advance width="831"/>
  <unicode hex="0053"/>
  <outline>
    <contour>
      <point x="418" y="1760" type="move" name="top"/>
    </contour>
    <contour>
      <point x="421" y="0" type="move" name="bottom"/>
    </contour>
    <contour>
      <point x="435" y="-20" type="curve" smooth="yes"/>
      <point x="700" y="-20"/>
      <point x="748" y="167"/>
      <point x="748" y="436" type="curve" smooth="yes"/>
      <point x="748" y="668"/>
      <point x="649" y="829"/>
      <point x="535" y="946" type="curve" smooth="yes"/>
      <point x="439" y="1043" type="line" smooth="yes"/>
      <point x="325" y="1161"/>
      <point x="264" y="1202"/>
      <point x="264" y="1371" type="curve" smooth="yes"/>
      <point x="264" y="1567"/>
      <point x="310" y="1654"/>
      <point x="427" y="1654" type="curve" smooth="yes"/>
      <point x="556" y="1654"/>
      <point x="566" y="1517"/>
      <point x="566" y="1253" type="curve" smooth="yes"/>
      <point x="566" y="1143" type="line"/>
      <point x="719" y="1143" type="line"/>
      <point x="719" y="1242" type="line" smooth="yes"/>
      <point x="719" y="1545"/>
      <point x="715" y="1782"/>
      <point x="426" y="1782" type="curve" smooth="yes"/>
      <point x="160" y="1782"/>
      <point x="115" y="1599"/>
      <point x="115" y="1346" type="curve" smooth="yes"/>
      <point x="115" y="1144"/>
      <point x="246" y="1021"/>
      <point x="339" y="930" type="curve" smooth="yes"/>
      <point x="441" y="833" type="line" smooth="yes"/>
      <point x="537" y="740"/>
      <point x="596" y="633"/>
      <point x="596" y="452" type="curve" smooth="yes"/>
      <point x="596" y="204"/>
      <point x="589" y="108"/>
      <point x="444" y="108" type="curve" smooth="yes"/>
      <point x="305" y="108"/>
      <point x="281" y="224"/>
      <point x="281" y="526" type="curve" smooth="yes"/>
      <point x="281" y="706" type="line"/>
      <point x="129" y="706" type="line"/>
      <point x="129" y="523" type="line" smooth="yes"/>
      <point x="129" y="224"/>
      <point x="155" y="-20"/>
    </contour>
  </outline>
</glyph>
<glyph name="T" format="1">
  <advance width="567"/>
  <unicode hex="0054"/>
  <outline>
    <contour>
      <point x="284" y="1760" type="move" name="top"/>
    </contour>
    <contour>
      <point x="284" y="862" type="move" name="center"/>
    </contour>
    <contour>
      <point x="284" y="0" type="move" name="bottom"/>
    </contour>
    <contour>
      <point x="219" y="0" type="line"/>
      <point x="367" y="0" type="line"/>
      <point x="367" y="1644" type="line"/>
      <point x="532" y="1644" type="line"/>
      <point x="532" y="1760" type="line"/>
      <point x="35" y="1760" type="line"/>
      <point x="35" y="1644" type="line"/>
      <point x="219" y="1644" type="line"/>
    </contour>
  </outline>
</glyph>
<glyph name="W" format="1">
  <advance width="1332"/>
  <unicode hex="0057"/>
  <outline>
    <contour>
      <point x="676" y="1760" type="move" name="top"/>
    </contour>
    <contour>
      <point x="316" y="0" type="line"/>
      <point x="453" y="0" type="line"/>
      <point x="687" y="1419" type="line"/>
      <point x="905" y="0" type="line"/>
      <point x="1052" y="0" type="line"/>
      <point x="1265" y="1760" type="line"/>
      <point x="1124" y="1760" type="line"/>
      <point x="984" y="322" type="line"/>
      <point x="741" y="1760" type="line"/>
      <point x="617" y="1760" type="line"/>
      <point x="383" y="322" type="line"/>
      <point x="213" y="1760" type="line"/>
      <point x="67" y="1760" type="line"/>
    </contour>
  </outline>
</glyph>
<glyph name="Y" format="1">
  <advance width="812"/>
  <unicode hex="0059"/>
  <outline>
    <contour>
      <point x="414" y="1760" type="move" name="top"/>
    </contour>
    <contour>
      <point x="347" y="0" type="line"/>
      <point x="496" y="0" type="line"/>
      <point x="496" y="773" type="line"/>
      <point x="783" y="1760" type="line"/>
      <point x="629" y="1760" type="line"/>
      <point x="423" y="982" type="line"/>
      <point x="420" y="982" type="line"/>
      <point x="179" y="1760" type="line"/>
      <point x="29" y="1760" type="line"/>
      <point x="347" y="772" type="line"/>
    </contour>
  </outline>
</glyph>
<glyph name="Z" format="1">
  <advance width="722"/>
  <unicode hex="005A"/>
  <outline>
    <contour>
      <point x="412" y="1760" type="move" name="top"/>
    </contour>
    <contour>
      <point x="131" y="0" type="line"/>
      <point x="636" y="0" type="line"/>
      <point x="636" y="118" type="line"/>
      <point x="281" y="118" type="line"/>
      <point x="644" y="1658" type="line"/>
      <point x="644" y="1760" type="line"/>
      <point x="164" y="1760" type="line"/>
      <point x="164" y="1644" type="line"/>
      <point x="492" y="1644" type="line"/>
      <point x="131" y="125" type="line"/>
    </contour>
  </outline>
</glyph>
<glyph name="bracketleft" format="1">
  <advance width="764"/>
  <unicode hex="005B"/>
  <outline>
    <contour>
      <point x="253" y="0" type="line"/>
      <point x="616" y="0" type="line"/>
      <point x="616" y="115" type="line"/>
      <point x="402" y="115" type="line"/>
      <point x="402" y="1646" type="line"/>
      <point x="616" y="1646" type="line"/>
      <point x="616" y="1761" type="line"/>
      <point x="253" y="1761" type="line"/>
    </contour>
  </outline>
</glyph>
<glyph name="backslash" format="1">
  <advance width="868"/>
  <unicode hex="005C"/>
  <outline>
    <contour>
      <point x="544" y="0" type="line"/>
      <point x="671" y="0" type="line"/>
      <point x="261" y="1761" type="line"/>
      <point x="133" y="1761" type="line"/>
    </contour>
  </outline>
</glyph>
<glyph name="bracketright" format="1">
  <advance width="764"/>
  <unicode hex="005D"/>
  <outline>
    <contour>
      <point x="196" y="0" type="line"/>
      <point x="558" y="0" type="line"/>
      <point x="558" y="1761" type="line"/>
      <point x="196" y="1761" type="line"/>
      <point x="196" y="1646" type="line"/>
      <point x="409" y="1646" type="line"/>
      <point x="409" y="115" type="line"/>
      <point x="196" y="115" type="line"/>
    </contour>
  </outline>
</glyph>
<glyph name="a" format="1">
  <advance width="874"/>
  <unicode hex="0061"/>
  <outline>
    <contour>
      <point x="455" y="1500" type="move" name="top"/>
    </contour>
    <contour>
      <point x="786" y="10" type="move" name="ogonek"/>
    </contour>
    <contour>
      <point x="383" y="-11" type="curve" smooth="yes"/>
      <point x="506" y="-11"/>
      <point x="568" y="75"/>
      <point x="580" y="112" type="curve"/>
      <point x="580" y="0" type="line"/>
      <point x="729" y="0" type="line"/>
      <point x="729" y="976" type="line" smooth="yes"/>
      <point x="729" y="1327"/>
      <point x="733" y="1518"/>
      <point x="450" y="1518" type="curve" smooth="yes"/>
      <point x="171" y="1518"/>
      <point x="162" y="1292"/>
      <point x="162" y="1051" type="curve" smooth="yes"/>
      <point x="162" y="1011" type="line"/>
      <point x="312" y="1011" type="line"/>
      <point x="312" y="1048" type="line" smooth="yes"/>
      <point x="312" y="1293"/>
      <point x="325" y="1387"/>
      <point x="450" y="1387" type="curve" smooth="yes"/>
      <point x="578" y="1387"/>
      <point x="580" y="1288"/>
      <point x="580" y="1058" type="curve" smooth="yes"/>
      <point x="580" y="211" type="line"/>
      <point x="557" y="170"/>
      <point x="488" y="113"/>
      <point x="410" y="113" type="curve" smooth="yes"/>
      <point x="314" y="113"/>
      <point x="292" y="190"/>
      <point x="292" y="390" type="curve" smooth="yes"/>
      <point x="292" y="509" type="line" smooth="yes"/>
      <point x="292" y="708"/>
      <point x="334" y="727"/>
      <point x="604" y="848" type="curve"/>
      <point x="604" y="966" type="line"/>
      <point x="349" y="855"/>
      <point x="144" y="789"/>
      <point x="144" y="569" type="curve" smooth="yes"/>
      <point x="144" y="377" type="line" smooth="yes"/>
      <point x="144" y="127"/>
      <point x="224" y="-11"/>
    </contour>
  </outline>
</glyph>
<glyph name="b" format="1">
  <advance width="883"/>
  <unicode hex="0062"/>
  <outline>
    <contour>
      <point x="511" y="-11" type="curve" smooth="yes"/>
      <point x="718" y="-11"/>
      <point x="747" y="204"/>
      <point x="747" y="490" type="curve" smooth="yes"/>
      <point x="747" y="1012" type="line" smooth="yes"/>
      <point x="747" y="1297"/>
      <point x="709" y="1528"/>
      <point x="481" y="1518" type="curve" smooth="yes"/>
      <point x="408" y="1515"/>
      <point x="325" y="1455"/>
      <point x="310" y="1372" type="curve"/>
      <point x="310" y="1783" type="line"/>
      <point x="161" y="1783" type="line"/>
      <point x="161" y="0" type="line"/>
      <point x="310" y="0" type="line"/>
      <point x="310" y="114" type="line"/>
      <point x="351" y="19"/>
      <point x="434" y="-11"/>
    </contour>
    <contour>
      <point x="461" y="115" type="curve" smooth="yes"/>
      <point x="336" y="115"/>
      <point x="310" y="221"/>
      <point x="310" y="460" type="curve" smooth="yes"/>
      <point x="310" y="1059" type="line" smooth="yes"/>
      <point x="310" y="1352"/>
      <point x="372" y="1386"/>
      <point x="468" y="1386" type="curve" smooth="yes"/>
      <point x="586" y="1386"/>
      <point x="598" y="1258"/>
      <point x="598" y="1061" type="curve" smooth="yes"/>
      <point x="598" y="466" type="line" smooth="yes"/>
      <point x="598" y="214"/>
      <point x="570" y="116"/>
    </contour>
  </outline>
</glyph>
<glyph name="c" format="1">
  <advance width="821"/>
  <unicode hex="0063"/>
  <outline>
    <contour>
      <point x="433" y="1500" type="move" name="top"/>
    </contour>
    <contour>
      <point x="411" y="0" type="move" name="bottom"/>
    </contour>
    <contour>
      <point x="426" y="-18" type="curve" smooth="yes"/>
      <point x="710" y="-18"/>
      <point x="708" y="205"/>
      <point x="708" y="517" type="curve" smooth="yes"/>
      <point x="708" y="562" type="line"/>
      <point x="557" y="562" type="line"/>
      <point x="557" y="449" type="line" smooth="yes"/>
      <point x="557" y="239"/>
      <point x="552" y="119"/>
      <point x="427" y="119" type="curve" smooth="yes"/>
      <point x="295" y="119"/>
      <point x="285" y="222"/>
      <point x="285" y="455" type="curve" smooth="yes"/>
      <point x="285" y="1057" type="line" smooth="yes"/>
      <point x="285" y="1254"/>
      <point x="300" y="1381"/>
      <point x="434" y="1381" type="curve" smooth="yes"/>
      <point x="558" y="1381"/>
      <point x="557" y="1274"/>
      <point x="557" y="1065" type="curve" smooth="yes"/>
      <point x="557" y="973" type="line"/>
      <point x="708" y="973" type="line"/>
      <point x="708" y="1020" type="line" smooth="yes"/>
      <point x="708" y="1314"/>
      <point x="706" y="1518"/>
      <point x="433" y="1518" type="curve" smooth="yes"/>
      <point x="171" y="1518"/>
      <point x="136" y="1300"/>
      <point x="136" y="1028" type="curve" smooth="yes"/>
      <point x="136" y="511" type="line" smooth="yes"/>
      <point x="136" y="202"/>
      <point x="153" y="-18"/>
    </contour>
  </outline>
</glyph>
<glyph name="d" format="1">
  <advance width="882"/>
  <unicode hex="0064"/>
  <outline>
    <contour>
      <point x="615" y="1631" type="move" name="center"/>
    </contour>
    <contour>
      <point x="373" y="-11" type="curve" smooth="yes"/>
      <point x="447" y="-11"/>
      <point x="531" y="18"/>
      <point x="572" y="114" type="curve"/>
      <point x="572" y="0" type="line"/>
      <point x="722" y="0" type="line"/>
      <point x="722" y="1783" type="line"/>
      <point x="572" y="1783" type="line"/>
      <point x="572" y="1393" type="line"/>
      <point x="546" y="1459"/>
      <point x="484" y="1518"/>
      <point x="413" y="1518" type="curve" smooth="yes"/>
      <point x="180" y="1518"/>
      <point x="136" y="1298"/>
      <point x="136" y="1008" type="curve" smooth="yes"/>
      <point x="136" y="481" type="line" smooth="yes"/>
      <point x="136" y="200"/>
      <point x="171" y="-11"/>
    </contour>
    <contour>
      <point x="417" y="114" type="curve" smooth="yes"/>
      <point x="298" y="114"/>
      <point x="286" y="243"/>
      <point x="286" y="436" type="curve" smooth="yes"/>
      <point x="286" y="1030" type="line" smooth="yes"/>
      <point x="286" y="1285"/>
      <point x="315" y="1384"/>
      <point x="424" y="1385" type="curve" smooth="yes"/>
      <point x="550" y="1385"/>
      <point x="573" y="1279"/>
      <point x="573" y="1037" type="curve" smooth="yes"/>
      <point x="573" y="434" type="line" smooth="yes"/>
      <point x="573" y="142"/>
      <point x="511" y="114"/>
    </contour>
  </outline>
</glyph>
<glyph name="e" format="1">
  <advance width="832"/>
  <unicode hex="0065"/>
  <outline>
    <contour>
      <point x="430" y="1500" type="move" name="top"/>
    </contour>
    <contour>
      <point x="639" y="10" type="move" name="ogonek"/>
    </contour>
    <contour>
      <point x="407" y="0" type="move" name="bottom"/>
    </contour>
    <contour>
      <point x="429" y="-18" type="curve" smooth="yes"/>
      <point x="704" y="-18"/>
      <point x="702" y="204"/>
      <point x="702" y="507" type="curve" smooth="yes"/>
      <point x="702" y="556" type="line"/>
      <point x="557" y="556" type="line"/>
      <point x="557" y="444" type="line" smooth="yes"/>
      <point x="557" y="236"/>
      <point x="550" y="113"/>
      <point x="427" y="113" type="curve" smooth="yes"/>
      <point x="297" y="113"/>
      <point x="285" y="220"/>
      <point x="285" y="450" type="curve" smooth="yes"/>
      <point x="285" y="752" type="line"/>
      <point x="706" y="752" type="line"/>
      <point x="706" y="1002" type="line" smooth="yes"/>
      <point x="706" y="1292"/>
      <point x="703" y="1518"/>
      <point x="433" y="1518" type="curve" smooth="yes"/>
      <point x="164" y="1518"/>
      <point x="136" y="1296"/>
      <point x="136" y="1014" type="curve" smooth="yes"/>
      <point x="136" y="511" type="line" smooth="yes"/>
      <point x="136" y="201"/>
      <point x="154" y="-18"/>
    </contour>
    <contour>
      <point x="285" y="877" type="line"/>
      <point x="285" y="1060" type="line" smooth="yes"/>
      <point x="285" y="1257"/>
      <point x="303" y="1387"/>
      <point x="434" y="1387" type="curve" smooth="yes"/>
      <point x="559" y="1387"/>
      <point x="557" y="1273"/>
      <point x="557" y="1068" type="curve" smooth="yes"/>
      <point x="557" y="877" type="line"/>
    </contour>
  </outline>
</glyph>
<glyph name="f" format="1">
  <advance width="610"/>
  <unicode hex="0066"/>
  <outline>
    <contour>
      <point x="224" y="0" type="line"/>
      <point x="374" y="0" type="line"/>
      <point x="374" y="1329" type="line"/>
      <point x="573" y="1329" type="line"/>
      <point x="573" y="1442" type="line"/>
      <point x="374" y="1442" type="line"/>
      <point x="374" y="1534" type="line" smooth="yes"/>
      <point x="374" y="1606"/>
      <point x="381" y="1657"/>
      <point x="492" y="1657" type="curve" smooth="yes"/>
      <point x="514" y="1657"/>
      <point x="541" y="1655"/>
      <point x="573" y="1650" type="curve"/>
      <point x="573" y="1771" type="line"/>
      <point x="576" y="1770"/>
      <point x="514" y="1789"/>
      <point x="438" y="1789" type="curve" smooth="yes"/>
      <point x="277" y="1789"/>
      <point x="224" y="1688"/>
      <point x="224" y="1512" type="curve" smooth="yes"/>
      <point x="224" y="1442" type="line"/>
      <point x="84" y="1442" type="line"/>
      <point x="84" y="1329" type="line"/>
      <point x="224" y="1329" type="line"/>
    </contour>
  </outline>
</glyph>
<glyph name="g" format="1">
  <advance width="878"/>
  <unicode hex="0067"/>
  <outline>
    <contour>
      <point x="460" y="1500" type="move" name="top"/>
    </contour>
    <contour>
      <point x="431" y="-232" type="curve" smooth="yes"/>
      <point x="681" y="-220"/>
      <point x="722" y="-11"/>
      <point x="722" y="97" type="curve" smooth="yes"/>
      <point x="722" y="1500" type="line"/>
      <point x="573" y="1500" type="line"/>
      <point x="573" y="1412" type="line"/>
      <point x="544" y="1489"/>
      <point x="481" y="1517"/>
      <point x="414" y="1518" type="curve" smooth="yes"/>
      <point x="211" y="1522"/>
      <point x="136" y="1299"/>
      <point x="136" y="1013" type="curve" smooth="yes"/>
      <point x="136" y="632" type="line" smooth="yes"/>
      <point x="136" y="345"/>
      <point x="180" y="127"/>
      <point x="389" y="127" type="curve" smooth="yes"/>
      <point x="463" y="127"/>
      <point x="530" y="148"/>
      <point x="573" y="245" type="curve"/>
      <point x="573" y="80" type="line" smooth="yes"/>
      <point x="573" y="-33"/>
      <point x="519" y="-101"/>
      <point x="435" y="-105" type="curve" smooth="yes"/>
      <point x="322" y="-109"/>
      <point x="247" y="-68"/>
      <point x="199" y="-32" type="curve"/>
      <point x="142" y="-147" type="line"/>
      <point x="207" y="-197"/>
      <point x="321" y="-238"/>
    </contour>
    <contour>
      <point x="444" y="255" type="curve" smooth="yes"/>
      <point x="317" y="255"/>
      <point x="285" y="364"/>
      <point x="285" y="611" type="curve" smooth="yes"/>
      <point x="285" y="1052" type="line" smooth="yes"/>
      <point x="285" y="1251"/>
      <point x="299" y="1387"/>
      <point x="432" y="1387" type="curve" smooth="yes"/>
      <point x="554" y="1387"/>
      <point x="573" y="1280"/>
      <point x="573" y="1050" type="curve" smooth="yes"/>
      <point x="573" y="614" type="line" smooth="yes"/>
      <point x="573" y="314"/>
      <point x="533" y="255"/>
    </contour>
  </outline>
</glyph>
<glyph name="h" format="1">
  <advance width="924"/>
  <unicode hex="0068"/>
  <outline>
    <contour>
      <point x="458" y="1760" type="move" name="top"/>
    </contour>
    <contour>
      <point x="241" y="1634" type="move" name="center"/>
    </contour>
    <contour>
      <point x="161" y="0" type="line"/>
      <point x="310" y="0" type="line"/>
      <point x="310" y="1191" type="line" smooth="yes"/>
      <point x="310" y="1340"/>
      <point x="403" y="1381"/>
      <point x="486" y="1381" type="curve" smooth="yes"/>
      <point x="566" y="1381"/>
      <point x="624" y="1346"/>
      <point x="624" y="1201" type="curve" smooth="yes"/>
      <point x="624" y="0" type="line"/>
      <point x="774" y="0" type="line"/>
      <point x="774" y="1211" type="line" smooth="yes"/>
      <point x="774" y="1425"/>
      <point x="682" y="1519"/>
      <point x="554" y="1519" type="curve" smooth="yes"/>
      <point x="437" y="1519"/>
      <point x="336" y="1438"/>
      <point x="310" y="1353" type="curve"/>
      <point x="310" y="1783" type="line"/>
      <point x="161" y="1783" type="line"/>
    </contour>
  </outline>
</glyph>
<glyph name="i" format="1">
  <advance width="474"/>
  <unicode hex="0069"/>
  <outline>
    <contour>
      <point x="162" y="0" type="line"/>
      <point x="312" y="0" type="line"/>
      <point x="312" y="1500" type="line"/>
      <point x="162" y="1500" type="line"/>
    </contour>
    <contour>
      <point x="162" y="1615" type="line"/>
      <point x="312" y="1615" type="line"/>
      <point x="312" y="1800" type="line"/>
      <point x="162" y="1800" type="line"/>
    </contour>
  </outline>
</glyph>
<glyph name="j" format="1">
  <advance width="504"/>
  <unicode hex="006A"/>
  <outline>
    <contour>
      <point x="220" y="-221" type="curve" smooth="yes"/>
      <point x="252" y="-216"/>
      <point x="343" y="-190"/>
      <point x="343" y="-34" type="curve" smooth="yes"/>
      <point x="343" y="1500" type="line"/>
      <point x="194" y="1500" type="line"/>
      <point x="194" y="-44" type="line" smooth="yes"/>
      <point x="194" y="-81"/>
      <point x="186" y="-106"/>
      <point x="157" y="-111" type="curve" smooth="yes"/>
      <point x="127" y="-115"/>
      <point x="85" y="-110"/>
      <point x="86" y="-110" type="curve"/>
      <point x="86" y="-218" type="line"/>
      <point x="84" y="-217"/>
      <point x="149" y="-230"/>
    </contour>
    <contour>
      <point x="195" y="1612" type="line"/>
      <point x="344" y="1612" type="line"/>
      <point x="344" y="1787" type="line"/>
      <point x="195" y="1787" type="line"/>
    </contour>
  </outline>
</glyph>
<glyph name="l" format="1">
  <advance width="470"/>
  <unicode hex="006C"/>
  <outline>
    <contour>
      <point x="235" y="1760" type="move" name="top"/>
    </contour>
    <contour>
      <point x="447" y="1500" type="move" name="topright"/>
    </contour>
    <contour>
      <point x="235" y="0" type="move" name="bottom"/>
    </contour>
    <contour>
      <point x="160" y="0" type="line"/>
      <point x="310" y="0" type="line"/>
      <point x="310" y="1783" type="line"/>
      <point x="160" y="1783" type="line"/>
    </contour>
  </outline>
</glyph>
<glyph name="m" format="1">
  <advance width="1363"/>
  <unicode hex="006D"/>
  <outline>
    <contour>
      <point x="731" y="1500" type="move" name="top"/>
    </contour>
    <contour>
      <point x="161" y="0" type="line"/>
      <point x="310" y="0" type="line"/>
      <point x="310" y="1209" type="line" smooth="yes"/>
      <point x="310" y="1324"/>
      <point x="371" y="1381"/>
      <point x="476" y="1381" type="curve" smooth="yes"/>
      <point x="555" y="1381"/>
      <point x="612" y="1348"/>
      <point x="612" y="1226" type="curve" smooth="yes"/>
      <point x="612" y="0" type="line"/>
      <point x="761" y="0" type="line"/>
      <point x="761" y="1217" type="line" smooth="yes"/>
      <point x="761" y="1420"/>
      <point x="672" y="1519"/>
      <point x="539" y="1519" type="curve" smooth="yes"/>
      <point x="425" y="1519"/>
      <point x="335" y="1436"/>
      <point x="310" y="1351" type="curve"/>
      <point x="310" y="1500" type="line"/>
      <point x="161" y="1500" type="line"/>
    </contour>
    <contour>
      <point x="1063" y="0" type="line"/>
      <point x="1213" y="0" type="line"/>
      <point x="1213" y="1217" type="line" smooth="yes"/>
      <point x="1213" y="1429"/>
      <point x="1118" y="1519"/>
      <point x="994" y="1519" type="curve" smooth="yes"/>
      <point x="878" y="1519"/>
      <point x="776" y="1448"/>
      <point x="732" y="1351" type="curve" smooth="yes"/>
      <point x="760" y="1218" type="line"/>
      <point x="760" y="1363"/>
      <point x="843" y="1381"/>
      <point x="926" y="1381" type="curve" smooth="yes"/>
      <point x="1007" y="1381"/>
      <point x="1063" y="1345"/>
      <point x="1063" y="1226" type="curve" smooth="yes"/>
    </contour>
  </outline>
</glyph>
<glyph name="n" format="1">
  <advance width="924"/>
  <unicode hex="006E"/>
  <outline>
    <contour>
      <point x="462" y="1500" type="move" name="top"/>
    </contour>
    <contour>
      <point x="462" y="0" type="move" name="bottom"/>
    </contour>
    <contour>
      <point x="161" y="0" type="line"/>
      <point x="310" y="0" type="line"/>
      <point x="310" y="1220" type="line" smooth="yes"/>
      <point x="310" y="1354"/>
      <point x="396" y="1387"/>
      <point x="479" y="1387" type="curve" smooth="yes"/>
      <point x="559" y="1387"/>
      <point x="624" y="1346"/>
      <point x="624" y="1223" type="curve" smooth="yes"/>
      <point x="624" y="0" type="line"/>
      <point x="773" y="0" type="line"/>
      <point x="773" y="1211" type="line" smooth="yes"/>
      <point x="773" y="1425"/>
      <point x="681" y="1519"/>
      <point x="552" y="1519" type="curve" smooth="yes"/>
      <point x="435" y="1519"/>
      <point x="336" y="1438"/>
      <point x="310" y="1353" type="curve"/>
      <point x="310" y="1500" type="line"/>
      <point x="161" y="1500" type="line"/>
    </contour>
  </outline>
</glyph>
<glyph name="o" format="1">
  <advance width="862"/>
  <unicode hex="006F"/>
  <outline>
    <contour>
      <point x="431" y="1500" type="move" name="top"/>
    </contour>
    <contour>
      <point x="434" y="113" type="curve" smooth="yes"/>
      <point x="301" y="113"/>
      <point x="285" y="253"/>
      <point x="285" y="463" type="curve" smooth="yes"/>
      <point x="285" y="1053" type="line" smooth="yes"/>
      <point x="285" y="1250"/>
      <point x="299" y="1387"/>
      <point x="434" y="1387" type="curve" smooth="yes"/>
      <point x="559" y="1387"/>
      <point x="576" y="1250"/>
      <point x="576" y="1053" type="curve" smooth="yes"/>
      <point x="576" y="463" type="line" smooth="yes"/>
      <point x="576" y="253"/>
      <point x="558" y="113"/>
    </contour>
    <contour>
      <point x="434" y="-18" type="curve" smooth="yes"/>
      <point x="713" y="-18"/>
      <point x="725" y="209"/>
      <point x="725" y="515" type="curve" smooth="yes"/>
      <point x="725" y="1018" type="line" smooth="yes"/>
      <point x="725" y="1301"/>
      <point x="704" y="1518"/>
      <point x="434" y="1518" type="curve" smooth="yes"/>
      <point x="165" y="1518"/>
      <point x="136" y="1300"/>
      <point x="136" y="1018" type="curve" smooth="yes"/>
      <point x="136" y="515" type="line" smooth="yes"/>
      <point x="136" y="204"/>
      <point x="157" y="-18"/>
    </contour>
  </outline>
</glyph>
<glyph name="p" format="1">
  <advance width="882"/>
  <unicode hex="0070"/>
  <outline>
    <contour>
      <point x="161" y="-265" type="line"/>
      <point x="310" y="-265" type="line"/>
      <point x="310" y="108" type="line"/>
      <point x="336" y="40"/>
      <point x="399" y="-18"/>
      <point x="470" y="-18" type="curve" smooth="yes"/>
      <point x="694" y="-18"/>
      <point x="746" y="194"/>
      <point x="746" y="475" type="curve" smooth="yes"/>
      <point x="746" y="1013" type="line" smooth="yes"/>
      <point x="746" y="1298"/>
      <point x="714" y="1511"/>
      <point x="509" y="1511" type="curve" smooth="yes"/>
      <point x="431" y="1511"/>
      <point x="351" y="1482"/>
      <point x="310" y="1385" type="curve"/>
      <point x="310" y="1500" type="line"/>
      <point x="161" y="1500" type="line"/>
    </contour>
    <contour>
      <point x="462" y="115" type="curve" smooth="yes"/>
      <point x="336" y="115"/>
      <point x="310" y="222"/>
      <point x="310" y="463" type="curve" smooth="yes"/>
      <point x="310" y="1059" type="line" smooth="yes"/>
      <point x="310" y="1351"/>
      <point x="371" y="1386"/>
      <point x="468" y="1386" type="curve" smooth="yes"/>
      <point x="586" y="1386"/>
      <point x="597" y="1259"/>
      <point x="597" y="1061" type="curve" smooth="yes"/>
      <point x="597" y="468" type="line" smooth="yes"/>
      <point x="597" y="214"/>
      <point x="571" y="116"/>
    </contour>
  </outline>
</glyph>
<glyph name="q" format="1">
  <advance width="875"/>
  <unicode hex="0071"/>
  <outline>
    <contour>
      <point x="573" y="-265" type="line"/>
      <point x="723" y="-265" type="line"/>
      <point x="723" y="1500" type="line"/>
      <point x="573" y="1500" type="line"/>
      <point x="573" y="1381" type="line"/>
      <point x="532" y="1480"/>
      <point x="450" y="1511"/>
      <point x="372" y="1511" type="curve" smooth="yes"/>
      <point x="165" y="1511"/>
      <point x="136" y="1298"/>
      <point x="136" y="1013" type="curve" smooth="yes"/>
      <point x="136" y="479" type="line" smooth="yes"/>
      <point x="136" y="198"/>
      <point x="186" y="-18"/>
      <point x="412" y="-18" type="curve" smooth="yes"/>
      <point x="483" y="-18"/>
      <point x="545" y="39"/>
      <point x="573" y="106" type="curve"/>
    </contour>
    <contour>
      <point x="414" y="114" type="curve" smooth="yes"/>
      <point x="296" y="114"/>
      <point x="284" y="241"/>
      <point x="284" y="437" type="curve" smooth="yes"/>
      <point x="284" y="1031" type="line" smooth="yes"/>
      <point x="284" y="1286"/>
      <point x="311" y="1384"/>
      <point x="420" y="1385" type="curve" smooth="yes"/>
      <point x="548" y="1385"/>
      <point x="572" y="1276"/>
      <point x="572" y="1037" type="curve" smooth="yes"/>
      <point x="572" y="441" type="line" smooth="yes"/>
      <point x="572" y="147"/>
      <point x="510" y="114"/>
    </contour>
  </outline>
</glyph>
<glyph name="r" format="1">
  <advance width="617"/>
  <unicode hex="0072"/>
  <outline>
    <contour>
      <point x="334" y="1500" type="move" name="top"/>
    </contour>
    <contour>
      <point x="257" y="0" type="move" name="bottom"/>
    </contour>
    <contour>
      <point x="161" y="0" type="line"/>
      <point x="310" y="0" type="line"/>
      <point x="310" y="1246" type="line"/>
      <point x="391" y="1361"/>
      <point x="469" y="1391"/>
      <point x="568" y="1391" type="curve"/>
      <point x="568" y="1391"/>
      <point x="570" y="1518"/>
      <point x="565" y="1518" type="curve" smooth="yes"/>
      <point x="432" y="1518"/>
      <point x="344" y="1449"/>
      <point x="310" y="1333" type="curve"/>
      <point x="310" y="1500" type="line"/>
      <point x="161" y="1500" type="line"/>
    </contour>
  </outline>
</glyph>
<glyph name="s" format="1">
  <advance width="757"/>
  <unicode hex="0073"/>
  <outline>
    <contour>
      <point x="398" y="1500" type="move" name="top"/>
    </contour>
    <contour>
      <point x="379" y="0" type="move" name="bottom"/>
    </contour>
    <contour>
      <point x="410" y="-20" type="curve" smooth="yes"/>
      <point x="602" y="-20"/>
      <point x="693" y="121"/>
      <point x="693" y="325" type="curve" smooth="yes"/>
      <point x="693" y="485"/>
      <point x="617" y="635"/>
      <point x="488" y="764" type="curve" smooth="yes"/>
      <point x="411" y="839" type="line" smooth="yes"/>
      <point x="295" y="956"/>
      <point x="241" y="1074"/>
      <point x="245" y="1186" type="curve" smooth="yes"/>
      <point x="250" y="1335"/>
      <point x="295" y="1381"/>
      <point x="388" y="1381" type="curve" smooth="yes"/>
      <point x="483" y="1381"/>
      <point x="513" y="1267"/>
      <point x="513" y="1064" type="curve" smooth="yes"/>
      <point x="513" y="957" type="line"/>
      <point x="668" y="957" type="line"/>
      <point x="668" y="1020" type="line" smooth="yes"/>
      <point x="668" y="1401"/>
      <point x="565" y="1518"/>
      <point x="387" y="1518" type="curve" smooth="yes"/>
      <point x="215" y="1518"/>
      <point x="94" y="1409"/>
      <point x="94" y="1180" type="curve" smooth="yes"/>
      <point x="94" y="1029"/>
      <point x="168" y="883"/>
      <point x="298" y="754" type="curve" smooth="yes"/>
      <point x="343" y="711"/>
      <point x="357" y="695"/>
      <point x="377" y="674" type="curve" smooth="yes"/>
      <point x="486" y="563"/>
      <point x="539" y="446"/>
      <point x="539" y="334" type="curve" smooth="yes"/>
      <point x="539" y="168"/>
      <point x="494" y="116"/>
      <point x="397" y="116" type="curve" smooth="yes"/>
      <point x="302" y="116"/>
      <point x="265" y="230"/>
      <point x="265" y="433" type="curve" smooth="yes"/>
      <point x="265" y="536" type="line"/>
      <point x="112" y="536" type="line"/>
      <point x="112" y="407" type="line" smooth="yes"/>
      <point x="112" y="98"/>
      <point x="222" y="-20"/>
    </contour>
  </outline>
</glyph>
<glyph name="u" format="1">
  <advance width="924"/>
  <unicode hex="0075"/>
  <outline>
    <contour>
      <point x="483" y="1500" type="move" name="top"/>
    </contour>
    <contour>
      <point x="832" y="10" type="move" name="ogonek"/>
    </contour>
    <contour>
      <point x="388" y="-20" type="curve" smooth="yes"/>
      <point x="504" y="-20"/>
      <point x="591" y="65"/>
      <point x="615" y="150" type="curve"/>
      <point x="615" y="0" type="line"/>
      <point x="764" y="0" type="line"/>
      <point x="764" y="1500" type="line"/>
      <point x="614" y="1500" type="line"/>
      <point x="615" y="303" type="line" smooth="yes"/>
      <point x="615" y="190"/>
      <point x="552" y="119"/>
      <point x="447" y="119" type="curve" smooth="yes"/>
      <point x="357" y="119"/>
      <point x="300" y="174"/>
      <point x="300" y="292" type="curve" smooth="yes"/>
      <point x="300" y="1500" type="line"/>
      <point x="151" y="1500" type="line"/>
      <point x="151" y="285" type="line" smooth="yes"/>
      <point x="151" y="47"/>
      <point x="293" y="-20"/>
    </contour>
  </outline>
</glyph>
<glyph name="v" format="1">
  <advance width="677"/>
  <unicode hex="0076"/>
  <outline>
    <contour>
      <point x="255" y="0" type="line"/>
      <point x="417" y="0" type="line"/>
      <point x="631" y="1500" type="line"/>
      <point x="495" y="1500" type="line"/>
      <point x="385" y="612" type="line"/>
      <point x="355" y="299" type="line"/>
      <point x="337" y="299" type="line"/>
      <point x="300" y="611" type="line"/>
      <point x="182" y="1500" type="line"/>
      <point x="45" y="1500" type="line"/>
    </contour>
  </outline>
</glyph>
<glyph name="w" format="1">
  <advance width="1075"/>
  <unicode hex="0077"/>
  <outline>
    <contour>
      <point x="547" y="1500" type="move" name="top"/>
    </contour>
    <contour>
      <point x="233" y="0" type="line"/>
      <point x="375" y="0" type="line"/>
      <point x="577" y="1500" type="line"/>
      <point x="476" y="1500" type="line"/>
      <point x="355" y="614" type="line"/>
      <point x="329" y="302" type="line"/>
      <point x="317" y="302" type="line"/>
      <point x="289" y="613" type="line"/>
      <point x="194" y="1500" type="line"/>
      <point x="57" y="1500" type="line"/>
    </contour>
    <contour>
      <point x="695" y="0" type="line"/>
      <point x="843" y="0" type="line"/>
      <point x="1017" y="1500" type="line"/>
      <point x="885" y="1500" type="line"/>
      <point x="810" y="648" type="line"/>
      <point x="790" y="302" type="line"/>
      <point x="780" y="302" type="line"/>
      <point x="740" y="646" type="line"/>
      <point x="603" y="1500" type="line"/>
      <point x="523" y="1500" type="line"/>
    </contour>
  </outline>
</glyph>
<glyph name="x" format="1">
  <advance width="670"/>
  <unicode hex="0078"/>
  <outline>
    <contour>
      <point x="34" y="0" type="line"/>
      <point x="166" y="0" type="line"/>
      <point x="374" y="740" type="line"/>
      <point x="388" y="740" type="line"/>
      <point x="633" y="1500" type="line"/>
      <point x="491" y="1500" type="line"/>
      <point x="286" y="777" type="line"/>
      <point x="276" y="777" type="line"/>
    </contour>
    <contour>
      <point x="498" y="0" type="line"/>
      <point x="637" y="0" type="line"/>
      <point x="182" y="1500" type="line"/>
      <point x="52" y="1500" type="line"/>
    </contour>
  </outline>
</glyph>
<glyph name="braceleft" format="1">
  <advance width="798"/>
  <unicode hex="007B"/>
  <outline>
    <contour>
      <point x="562" y="-121" type="curve" smooth="yes"/>
      <point x="622" y="-121" type="line"/>
      <point x="622" y="16" type="line"/>
      <point x="498" y="16"/>
      <point x="483" y="38"/>
      <point x="483" y="230" type="curve" smooth="yes"/>
      <point x="483" y="476" type="line" smooth="yes"/>
      <point x="483" y="748"/>
      <point x="465" y="784"/>
      <point x="311" y="830" type="curve"/>
      <point x="465" y="876"/>
      <point x="483" y="912"/>
      <point x="483" y="1184" type="curve" smooth="yes"/>
      <point x="483" y="1430" type="line" smooth="yes"/>
      <point x="483" y="1622"/>
      <point x="498" y="1644"/>
      <point x="622" y="1644" type="curve"/>
      <point x="622" y="1781" type="line"/>
      <point x="562" y="1781" type="line" smooth="yes"/>
      <point x="383" y="1781"/>
      <point x="334" y="1704"/>
      <point x="334" y="1443" type="curve" smooth="yes"/>
      <point x="334" y="1168" type="line" smooth="yes"/>
      <point x="334" y="954"/>
      <point x="317" y="931"/>
      <point x="195" y="931" type="curve"/>
      <point x="195" y="729" type="line"/>
      <point x="317" y="729"/>
      <point x="334" y="706"/>
      <point x="334" y="492" type="curve" smooth="yes"/>
      <point x="334" y="217" type="line" smooth="yes"/>
      <point x="334" y="-44"/>
      <point x="383" y="-121"/>
    </contour>
  </outline>
</glyph>
<glyph name="sterling" format="1">
  <advance width="1077"/>
  <unicode hex="00A3"/>
  <outline>
    <contour>
      <point x="82" y="0" type="line"/>
      <point x="906" y="0" type="line"/>
      <point x="906" y="107" type="line"/>
      <point x="297" y="107" type="line"/>
      <point x="456" y="184"/>
      <point x="500" y="386"/>
      <point x="500" y="646" type="curve" smooth="yes"/>
      <point x="500" y="704"/>
      <point x="494" y="772"/>
      <point x="487" y="833" type="curve"/>
      <point x="824" y="833" type="line"/>
      <point x="824" y="936" type="line"/>
      <point x="458" y="936" type="line"/>
      <point x="361" y="1264"/>
      <point x="318" y="1417"/>
      <point x="318" y="1414" type="curve" smooth="yes"/>
      <point x="318" y="1597"/>
      <point x="423" y="1654"/>
      <point x="580" y="1654" type="curve" smooth="yes"/>
      <point x="718" y="1654"/>
      <point x="782" y="1549"/>
      <point x="782" y="1393" type="curve" smooth="yes"/>
      <point x="782" y="1246" type="line"/>
      <point x="915" y="1246" type="line"/>
      <point x="915" y="1381" type="line" smooth="yes"/>
      <point x="915" y="1653"/>
      <point x="778" y="1781"/>
      <point x="583" y="1781" type="curve" smooth="yes"/>
      <point x="266" y="1781"/>
      <point x="176" y="1626"/>
      <point x="176" y="1401" type="curve" smooth="yes"/>
      <point x="176" y="1409"/>
      <point x="230" y="1224"/>
      <point x="313" y="936" type="curve"/>
      <point x="98" y="936" type="line"/>
      <point x="98" y="833" type="line"/>
      <point x="341" y="833" type="line"/>
      <point x="353" y="771"/>
      <point x="360" y="698"/>
      <point x="360" y="633" type="curve" smooth="yes"/>
      <point x="360" y="308"/>
      <point x="246" y="158"/>
      <point x="82" y="86" type="curve"/>
    </contour>
  </outline>
</glyph>
<glyph name="ordfeminine" format="1">
  <advance width="927"/>
  <unicode hex="00AA"/>
  <outline>
    <contour>
      <point x="425" y="379" type="curve" smooth="yes"/>
      <point x="524" y="379"/>
      <point x="573" y="448"/>
      <point x="584" y="481" type="curve"/>
      <point x="584" y="389" type="line"/>
      <point x="704" y="389" type="line"/>
      <point x="704" y="1173" type="line" smooth="yes"/>
      <point x="704" y="1453"/>
      <point x="706" y="1608"/>
      <point x="479" y="1608" type="curve" smooth="yes"/>
      <point x="256" y="1608"/>
      <point x="248" y="1426"/>
      <point x="248" y="1233" type="curve" smooth="yes"/>
      <point x="248" y="1234"/>
      <point x="248" y="1199"/>
      <point x="247" y="1200" type="curve"/>
      <point x="368" y="1200" type="line"/>
      <point x="368" y="1230" type="line" smooth="yes"/>
      <point x="368" y="1426"/>
      <point x="378" y="1503"/>
      <point x="480" y="1503" type="curve" smooth="yes"/>
      <point x="579" y="1503"/>
      <point x="584" y="1434"/>
      <point x="584" y="1249" type="curve" smooth="yes"/>
      <point x="584" y="1157" type="line"/>
      <point x="388" y="1071"/>
      <point x="234" y="1016"/>
      <point x="234" y="845" type="curve" smooth="yes"/>
      <point x="234" y="846"/>
      <point x="234" y="692"/>
      <point x="234" y="692" type="curve" smooth="yes"/>
      <point x="234" y="490"/>
      <point x="297" y="379"/>
    </contour>
    <contour>
      <point x="447" y="479" type="curve" smooth="yes"/>
      <point x="370" y="479"/>
      <point x="352" y="540"/>
      <point x="352" y="702" type="curve" smooth="yes"/>
      <point x="352" y="799" type="line" smooth="yes"/>
      <point x="352" y="954"/>
      <point x="385" y="974"/>
      <point x="584" y="1063" type="curve"/>
      <point x="584" y="558" type="line"/>
      <point x="565" y="526"/>
      <point x="510" y="479"/>
    </contour>
  </outline>
</glyph>
<glyph name="plusminus" format="1">
  <advance width="854"/>
  <unicode hex="00B1"/>
  <outline>
    <contour>
      <point x="368" y="554" type="line"/>
      <point x="486" y="554" type="line"/>
      <point x="486" y="820" type="line"/>
      <point x="720" y="820" type="line"/>
      <point x="720" y="926" type="line"/>
      <point x="486" y="926" type="line"/>
      <point x="486" y="1185" type="line"/>
      <point x="368" y="1185" type="line"/>
      <point x="368" y="926" type="line"/>
      <point x="138" y="926" type="line"/>
      <point x="138" y="820" type="line"/>
      <point x="368" y="820" type="line"/>
    </contour>
    <contour>
      <point x="173" y="259" type="line"/>
      <point x="689" y="259" type="line"/>
      <point x="689" y="377" type="line"/>
      <point x="173" y="377" type="line"/>
    </contour>
  </outline>
</glyph>
<glyph name="uni00B2" format="1">
  <advance width="861"/>
  <unicode hex="00B2"/>
  <outline>
    <contour>
      <point x="264" y="420" type="line"/>
      <point x="651" y="420" type="line"/>
      <point x="651" y="498" type="line"/>
      <point x="375" y="498" type="line"/>
      <point x="408" y="853"/>
      <point x="670" y="1047"/>
      <point x="670" y="1406" type="curve" smooth="yes"/>
      <point x="670" y="1575"/>
      <point x="653" y="1778"/>
      <point x="488" y="1778" type="curve" smooth="yes"/>
      <point x="266" y="1778"/>
      <point x="260" y="1603"/>
      <point x="260" y="1314" type="curve" smooth="yes"/>
      <point x="259" y="1232" type="line"/>
      <point x="375" y="1232" type="line"/>
      <point x="375" y="1410" type="line" smooth="yes"/>
      <point x="375" y="1647"/>
      <point x="421" y="1681"/>
      <point x="471" y="1681" type="curve" smooth="yes"/>
      <point x="520" y="1681"/>
      <point x="560" y="1645"/>
      <point x="560" y="1422" type="curve" smooth="yes"/>
      <point x="560" y="1330"/>
      <point x="537" y="1200"/>
      <point x="507" y="1135" type="curve" smooth="yes"/>
      <point x="522" y="1153"/>
      <point x="264" y="572"/>
      <point x="264" y="492" type="curve" smooth="yes"/>
    </contour>
  </outline>
</glyph>
<glyph name="acute" format="1">
  <advance width="650"/>
  <unicode hex="00B4"/>
  <outline>
    <contour>
      <point x="274" y="1786" type="move" name="_top"/>
    </contour>
    <contour>
      <point x="100" y="1920" type="line"/>
      <point x="498" y="2003" type="line"/>
      <point x="498" y="2147" type="line"/>
      <point x="100" y="1989" type="line"/>
    </contour>
  </outline>
</glyph>
<glyph name="cedilla" format="1">
  <advance width="1015"/>
  <unicode hex="00B8"/>
  <outline>
    <contour>
      <point x="515" y="0" type="move" name="_bottom"/>
    </contour>
    <contour>
      <point x="470" y="-596" type="curve" smooth="yes"/>
      <point x="626" y="-596"/>
      <point x="739" y="-492"/>
      <point x="739" y="-376" type="curve" smooth="yes"/>
      <point x="739" y="-297"/>
      <point x="688" y="-211"/>
      <point x="560" y="-147" type="curve"/>
      <point x="551" y="0" type="line"/>
      <point x="494" y="0" type="line"/>
      <point x="454" y="-196" type="line"/>
      <point x="536" y="-214"/>
      <point x="614" y="-269"/>
      <point x="614" y="-359" type="curve" smooth="yes"/>
      <point x="614" y="-434"/>
      <point x="572" y="-501"/>
      <point x="383" y="-501" type="curve"/>
      <point x="383" y="-587" type="line"/>
      <point x="414" y="-593"/>
      <point x="442" y="-596"/>
    </contour>
  </outline>
</glyph>
<glyph name="guillemotright" format="1">
  <advance width="1304"/>
  <unicode hex="00BB"/>
  <outline>
    <contour>
      <point x="193" y="414" type="line"/>
      <point x="659" y="699" type="line"/>
      <point x="659" y="794" type="line"/>
      <point x="193" y="1065" type="line"/>
      <point x="193" y="915" type="line"/>
      <point x="505" y="749" type="line"/>
      <point x="193" y="574" type="line"/>
    </contour>
    <contour>
      <point x="716" y="414" type="line"/>
      <point x="1182" y="699" type="line"/>
      <point x="1182" y="794" type="line"/>
      <point x="716" y="1065" type="line"/>
      <point x="716" y="915" type="line"/>
      <point x="1028" y="749" type="line"/>
      <point x="716" y="574" type="line"/>
    </contour>
  </outline>
</glyph>
<glyph name="onequarter" format="1">
  <advance width="1535"/>
  <unicode hex="00BC"/>
  <outline>
    <contour>
      <point x="1188" y="0" type="line"/>
      <point x="1284" y="0" type="line"/>
      <point x="1284" y="244" type="line"/>
      <point x="1393" y="244" type="line"/>
      <point x="1393" y="326" type="line"/>
      <point x="1284" y="326" type="line"/>
      <point x="1284" y="1224" type="line"/>
      <point x="1192" y="1224" type="line"/>
      <point x="916" y="314" type="line"/>
      <point x="916" y="244" type="line"/>
      <point x="1188" y="244" type="line"/>
    </contour>
    <contour>
      <point x="267" y="416" type="line"/>
      <point x="383" y="416" type="line"/>
      <point x="383" y="1774" type="line"/>
      <point x="312" y="1774" type="line"/>
      <point x="266" y="1671"/>
      <point x="182" y="1617"/>
      <point x="100" y="1604" type="curve"/>
      <point x="100" y="1529" type="line"/>
      <point x="157" y="1529"/>
      <point x="232" y="1552"/>
      <point x="267" y="1597" type="curve"/>
    </contour>
    <contour>
      <point x="489" y="0" type="line"/>
      <point x="607" y="0" type="line"/>
      <point x="1068" y="1768" type="line"/>
      <point x="948" y="1768" type="line"/>
    </contour>
    <contour>
      <point x="1007" y="326" type="line"/>
      <point x="1188" y="989" type="line"/>
      <point x="1188" y="326" type="line"/>
    </contour>
  </outline>
</glyph>
<glyph name="Oslash" format="1">
  <advance width="900"/>
  <unicode hex="00D8"/>
  <outline>
    <contour>
      <point x="548" y="0" type="move" name="top"/>
    </contour>
    <contour>
      <point x="156" y="-206" type="line"/>
      <point x="892" y="1870" type="line"/>
      <point x="785" y="1906" type="line"/>
      <point x="57" y="-166" type="line"/>
    </contour>
    <component base="O"/>
  </outline>
</glyph>
<glyph name="Thorn" format="1">
  <advance width="876"/>
  <unicode hex="00DE"/>
  <outline>
    <contour>
      <point x="177" y="0" type="line"/>
      <point x="326" y="0" type="line"/>
      <point x="326" y="434" type="line"/>
      <point x="474" y="434" type="line" smooth="yes"/>
      <point x="729" y="434"/>
      <point x="788" y="606"/>
      <point x="788" y="973" type="curve" smooth="yes"/>
      <point x="788" y="972"/>
      <point x="788" y="994"/>
      <point x="788" y="993" type="curve" smooth="yes"/>
      <point x="789" y="1291"/>
      <point x="765" y="1501"/>
      <point x="483" y="1501" type="curve" smooth="yes"/>
      <point x="326" y="1501" type="line"/>
      <point x="326" y="1760" type="line"/>
      <point x="177" y="1760" type="line"/>
    </contour>
    <contour>
      <point x="326" y="560" type="line"/>
      <point x="326" y="1377" type="line"/>
      <point x="491" y="1377" type="line" smooth="yes"/>
      <point x="615" y="1377"/>
      <point x="640" y="1264"/>
      <point x="640" y="1008" type="curve" smooth="yes"/>
      <point x="640" y="1008"/>
      <point x="640" y="971"/>
      <point x="640" y="972" type="curve" smooth="yes"/>
      <point x="640" y="657"/>
      <point x="609" y="560"/>
      <point x="485" y="560" type="curve" smooth="yes"/>
    </contour>
  </outline>
</glyph>
<glyph name="germandbls" format="1">
  <advance width="933"/>
  <unicode hex="00DF"/>
  <outline>
    <contour>
      <point x="153" y="0" type="line"/>
      <point x="300" y="0" type="line"/>
      <point x="300" y="1500" type="line" smooth="yes"/>
      <point x="300" y="1646"/>
      <point x="339" y="1687"/>
      <point x="453" y="1687" type="curve" smooth="yes"/>
      <point x="589" y="1687"/>
      <point x="628" y="1646"/>
      <point x="628" y="1500" type="curve" smooth="yes"/>
      <point x="628" y="1170" type="line" smooth="yes"/>
      <point x="628" y="1042"/>
      <point x="574" y="1007"/>
      <point x="423" y="1007" type="curve"/>
      <point x="423" y="869" type="line"/>
      <point x="624" y="869"/>
      <point x="683" y="821"/>
      <point x="683" y="656" type="curve" smooth="yes"/>
      <point x="683" y="395" type="line" smooth="yes"/>
      <point x="683" y="155"/>
      <point x="656" y="127"/>
      <point x="414" y="127" type="curve"/>
      <point x="414" y="0" type="line"/>
      <point x="518" y="0" type="line" smooth="yes"/>
      <point x="818" y="0"/>
      <point x="831" y="177"/>
      <point x="831" y="476" type="curve" smooth="yes"/>
      <point x="831" y="553" type="line" smooth="yes"/>
      <point x="831" y="819"/>
      <point x="778" y="903"/>
      <point x="602" y="945" type="curve"/>
      <point x="733" y="988"/>
      <point x="771" y="1047"/>
      <point x="771" y="1220" type="curve" smooth="yes"/>
      <point x="771" y="1417" type="line" smooth="yes"/>
      <point x="771" y="1700"/>
      <point x="708" y="1781"/>
      <point x="440" y="1781" type="curve" smooth="yes"/>
      <point x="157" y="1781"/>
      <point x="153" y="1660"/>
      <point x="153" y="1417" type="curve" smooth="yes"/>
    </contour>
  </outline>
</glyph>
<glyph name="ae" format="1">
  <advance width="1283"/>
  <unicode hex="00E6"/>
  <outline>
    <contour>
      <point x="782" y="506" type="move" name="top"/>
    </contour>
    <contour>
      <point x="376" y="-11" type="curve" smooth="yes"/>
      <point x="469" y="-11"/>
      <point x="583" y="58"/>
      <point x="630" y="103" type="curve"/>
      <point x="674" y="24"/>
      <point x="745" y="-18"/>
      <point x="872" y="-18" type="curve" smooth="yes"/>
      <point x="1149" y="-18"/>
      <point x="1149" y="201"/>
      <point x="1149" y="505" type="curve" smooth="yes"/>
      <point x="1149" y="556" type="line"/>
      <point x="1004" y="556" type="line"/>
      <point x="1004" y="556"/>
      <point x="1004" y="433"/>
      <point x="1004" y="439" type="curve" smooth="yes"/>
      <point x="1004" y="231"/>
      <point x="997" y="113"/>
      <point x="875" y="113" type="curve" smooth="yes"/>
      <point x="742" y="113"/>
      <point x="733" y="220"/>
      <point x="733" y="443" type="curve" smooth="yes"/>
      <point x="733" y="754" type="line"/>
      <point x="1154" y="754" type="line"/>
      <point x="1154" y="748"/>
      <point x="1153" y="1002"/>
      <point x="1153" y="1002" type="curve" smooth="yes"/>
      <point x="1153" y="1292"/>
      <point x="1150" y="1518"/>
      <point x="881" y="1518" type="curve" smooth="yes"/>
      <point x="775" y="1518"/>
      <point x="705" y="1485"/>
      <point x="659" y="1427" type="curve"/>
      <point x="629" y="1487"/>
      <point x="570" y="1518"/>
      <point x="454" y="1518" type="curve" smooth="yes"/>
      <point x="175" y="1518"/>
      <point x="166" y="1292"/>
      <point x="166" y="1051" type="curve" smooth="yes"/>
      <point x="166" y="1053"/>
      <point x="166" y="1010"/>
      <point x="166" y="1011" type="curve"/>
      <point x="316" y="1011" type="line"/>
      <point x="316" y="1047" type="line" smooth="yes"/>
      <point x="316" y="1291"/>
      <point x="328" y="1388"/>
      <point x="454" y="1388" type="curve" smooth="yes"/>
      <point x="581" y="1388"/>
      <point x="584" y="1296"/>
      <point x="584" y="1065" type="curve" smooth="yes"/>
      <point x="584" y="1069"/>
      <point x="584" y="956"/>
      <point x="584" y="956" type="curve"/>
      <point x="341" y="849"/>
      <point x="147" y="781"/>
      <point x="148" y="566" type="curve" smooth="yes"/>
      <point x="148" y="567"/>
      <point x="148" y="374"/>
      <point x="148" y="375" type="curve" smooth="yes"/>
      <point x="148" y="128"/>
      <point x="219" y="-11"/>
    </contour>
    <contour>
      <point x="414" y="112" type="curve" smooth="yes"/>
      <point x="318" y="112"/>
      <point x="296" y="189"/>
      <point x="296" y="390" type="curve" smooth="yes"/>
      <point x="296" y="511" type="line" smooth="yes"/>
      <point x="296" y="702"/>
      <point x="336" y="727"/>
      <point x="584" y="840" type="curve"/>
      <point x="584" y="211" type="line"/>
      <point x="561" y="170"/>
      <point x="492" y="112"/>
    </contour>
    <contour>
      <point x="733" y="874" type="line"/>
      <point x="733" y="1063" type="line" smooth="yes"/>
      <point x="733" y="1257"/>
      <point x="751" y="1387"/>
      <point x="881" y="1387" type="curve" smooth="yes"/>
      <point x="1007" y="1387"/>
      <point x="1004" y="1273"/>
      <point x="1004" y="1068" type="curve" smooth="yes"/>
      <point x="1004" y="874" type="line"/>
    </contour>
  </outline>
</glyph>
<glyph name="Hbar" format="1">
  <advance width="932"/>
  <unicode hex="0126"/>
  <outline>
    <contour>
      <point x="55" y="1416" type="line"/>
      <point x="900" y="1416" type="line"/>
      <point x="900" y="1498" type="line"/>
      <point x="55" y="1498" type="line"/>
    </contour>
    <component base="H"/>
  </outline>
</glyph>
<glyph name="Lslash" format="1">
  <advance width="705"/>
  <unicode hex="0141"/>
  <outline>
    <contour>
      <point x="-1" y="794" type="line"/>
      <point x="497" y="1011" type="line"/>
      <point x="497" y="1133" type="line"/>
      <point x="-1" y="916" type="line"/>
    </contour>
    <component base="L"/>
  </outline>
</glyph>
<glyph name="breve" format="1">
  <advance width="1016"/>
  <unicode hex="02D8"/>
  <outline>
    <contour>
      <point x="508" y="1500" type="move" name="_top"/>
    </contour>
    <contour>
      <point x="505" y="1619" type="curve" smooth="yes"/>
      <point x="635" y="1619"/>
      <point x="696" y="1697"/>
      <point x="696" y="1810" type="curve" smooth="yes"/>
      <point x="696" y="1823" type="line"/>
      <point x="632" y="1823" type="line"/>
      <point x="632" y="1728"/>
      <point x="565" y="1710"/>
      <point x="507" y="1710" type="curve" smooth="yes"/>
      <point x="446" y="1710"/>
      <point x="379" y="1732"/>
      <point x="379" y="1823" type="curve"/>
      <point x="315" y="1823" type="line"/>
      <point x="315" y="1808" type="line" smooth="yes"/>
      <point x="315" y="1692"/>
      <point x="381" y="1619"/>
    </contour>
  </outline>
</glyph>
<glyph name="ogonek" format="1">
  <advance width="1015"/>
  <unicode hex="02DB"/>
  <outline>
    <contour>
      <point x="837" y="0" type="move" name="_ogonek"/>
    </contour>
    <contour>
      <point x="643" y="-626" type="curve" smooth="yes"/>
      <point x="711" y="-626"/>
      <point x="789" y="-604"/>
      <point x="812" y="-591" type="curve"/>
      <point x="812" y="-498" type="line"/>
      <point x="813" y="-499"/>
      <point x="744" y="-523"/>
      <point x="659" y="-523" type="curve" smooth="yes"/>
      <point x="554" y="-523"/>
      <point x="512" y="-466"/>
      <point x="512" y="-390" type="curve" smooth="yes"/>
      <point x="512" y="-285"/>
      <point x="595" y="-127"/>
      <point x="731" y="0" type="curve"/>
      <point x="667" y="0" type="line"/>
      <point x="490" y="-100"/>
      <point x="387" y="-271"/>
      <point x="387" y="-410" type="curve" smooth="yes"/>
      <point x="387" y="-527"/>
      <point x="464" y="-626"/>
    </contour>
  </outline>
</glyph>
<glyph name="hungarumlaut" format="1">
  <advance width="1300"/>
  <unicode hex="02DD"/>
  <outline>
    <contour>
      <point x="661" y="-150" type="move" name="_top"/>
    </contour>
    <contour>
      <point x="521" y="11" type="line"/>
      <point x="723" y="353" type="line"/>
      <point x="559" y="431" type="line"/>
      <point x="452" y="40" type="line"/>
    </contour>
    <contour>
      <point x="771" y="0" type="line"/>
      <point x="1034" y="342" type="line"/>
      <point x="867" y="431" type="line"/>
      <point x="703" y="40" type="line"/>
    </contour>
  </outline>
</glyph>
<glyph name="mu" format="1">
  <advance width="923"/>
  <unicode hex="03BC"/>
  <outline>
    <contour>
      <point x="150" y="-186" type="line"/>
      <point x="300" y="-186" type="line"/>
      <point x="300" y="-8" type="line"/>
      <point x="319" y="-19"/>
      <point x="341" y="-29"/>
      <point x="364" y="-38" type="curve" smooth="yes"/>
      <point x="494" y="-38"/>
      <point x="585" y="69"/>
      <point x="614" y="166" type="curve"/>
      <point x="578" y="0" type="line"/>
      <point x="763" y="-150" type="line"/>
      <point x="798" y="1500" type="line"/>
      <point x="614" y="1605" type="line"/>
      <point x="614" y="302" type="line" smooth="yes"/>
      <point x="614" y="190"/>
      <point x="551" y="119"/>
      <point x="446" y="119" type="curve" smooth="yes"/>
      <point x="356" y="119"/>
      <point x="299" y="164"/>
      <point x="299" y="157" type="curve" smooth="yes"/>
      <point x="299" y="1500" type="line"/>
      <point x="150" y="1500" type="line"/>
    </contour>
  </outline>
</glyph>
<glyph name="quoteright" format="1">
  <advance width="597"/>
  <unicode hex="2019"/>
  <outline>
    <contour>
      <point x="240" y="1164" type="line"/>
      <point x="346" y="1164" type="line"/>
      <point x="460" y="1590" type="line"/>
      <point x="460" y="1783" type="line"/>
      <point x="189" y="1783" type="line"/>
      <point x="189" y="1581" type="line"/>
      <point x="331" y="1581" type="line"/>
    </contour>
  </outline>
</glyph>
<glyph name="quotesinglbase" format="1">
  <advance width="484"/>
  <unicode hex="201A"/>
  <outline>
    <contour>
      <point x="166" y="-437" type="line"/>
      <point x="269" y="-437" type="line"/>
      <point x="388" y="9" type="line"/>
      <point x="388" y="207" type="line"/>
      <point x="113" y="207" type="line"/>
      <point x="113" y="0" type="line"/>
      <point x="259" y="0" type="line"/>
    </contour>
  </outline>
</glyph>
<glyph name="quotedblleft" format="1">
  <advance width="1030"/>
  <unicode hex="201C"/>
  <outline>
    <contour>
      <point x="176" y="1149" type="line"/>
      <point x="451" y="1149" type="line"/>
      <point x="451" y="1355" type="line"/>
      <point x="305" y="1355" type="line"/>
      <point x="399" y="1783" type="line"/>
      <point x="295" y="1783" type="line"/>
      <point x="176" y="1346" type="line"/>
    </contour>
    <contour>
      <point x="623" y="1149" type="line"/>
      <point x="898" y="1149" type="line"/>
      <point x="898" y="1355" type="line"/>
      <point x="752" y="1355" type="line"/>
      <point x="845" y="1783" type="line"/>
      <point x="742" y="1783" type="line"/>
      <point x="623" y="1346" type="line"/>
    </contour>
  </outline>
</glyph>
<glyph name="quotedblright" format="1">
  <advance width="1077"/>
  <unicode hex="201D"/>
  <outline>
    <contour>
      <point x="243" y="1149" type="line"/>
      <point x="346" y="1149" type="line"/>
      <point x="466" y="1586" type="line"/>
      <point x="466" y="1783" type="line"/>
      <point x="191" y="1783" type="line"/>
      <point x="191" y="1577" type="line"/>
      <point x="337" y="1577" type="line"/>
    </contour>
    <contour>
      <point x="690" y="1149" type="line"/>
      <point x="793" y="1149" type="line"/>
      <point x="913" y="1586" type="line"/>
      <point x="913" y="1783" type="line"/>
      <point x="638" y="1783" type="line"/>
      <point x="638" y="1577" type="line"/>
      <point x="783" y="1577" type="line"/>
    </contour>
  </outline>
</glyph>
<glyph name="dagger" format="1">
  <advance width="909"/>
  <unicode hex="2020"/>
  <outline>
    <contour>
      <point x="382" y="0" type="line"/>
      <point x="530" y="0" type="line"/>
      <point x="530" y="1066" type="line"/>
      <point x="818" y="1066" type="line"/>
      <point x="818" y="1182" type="line"/>
      <point x="530" y="1182" type="line"/>
      <point x="530" y="1592" type="line"/>
      <point x="382" y="1592" type="line"/>
      <point x="382" y="1182" type="line"/>
      <point x="91" y="1182" type="line"/>
      <point x="91" y="1066" type="line"/>
      <point x="382" y="1066" type="line"/>
    </contour>
  </outline>
</glyph>
<glyph name="guilsinglright" format="1">
  <advance width="727"/>
  <unicode hex="203A"/>
  <outline>
    <contour>
      <point x="166" y="414" type="line"/>
      <point x="632" y="699" type="line"/>
      <point x="632" y="794" type="line"/>
      <point x="166" y="1065" type="line"/>
      <point x="166" y="915" type="line"/>
      <point x="478" y="749" type="line"/>
      <point x="166" y="574" type="line"/>
    </contour>
  </outline>
</glyph>
<glyph name="fraction" format="1">
  <advance width="829"/>
  <unicode hex="2044"/>
  <outline>
    <contour>
      <point x="94" y="0" type="line"/>
      <point x="231" y="0" type="line"/>
      <point x="673" y="1768" type="line"/>
      <point x="536" y="1768" type="line"/>
    </contour>
  </outline>
</glyph>
<glyph name="uni2074" format="1">
  <advance width="857"/>
  <unicode hex="2074"/>
  <outline>
    <contour>
      <point x="489" y="554" type="line"/>
      <point x="580" y="554" type="line"/>
      <point x="580" y="795" type="line"/>
      <point x="688" y="795" type="line"/>
      <point x="688" y="873" type="line"/>
      <point x="580" y="873" type="line"/>
      <point x="580" y="1760" type="line"/>
      <point x="495" y="1760" type="line"/>
      <point x="224" y="862" type="line"/>
      <point x="224" y="795" type="line"/>
      <point x="489" y="795" type="line"/>
    </contour>
    <contour>
      <point x="310" y="873" type="line"/>
      <point x="489" y="1533" type="line"/>
      <point x="489" y="873" type="line"/>
    </contour>
  </outline>
</glyph>
<glyph name="trademark" format="1">
  <advance width="1407"/>
  <unicode hex="2122"/>
  <outline>
    <contour>
      <point x="631" y="447" type="line"/>
      <point x="727" y="447" type="line"/>
      <point x="727" y="1005" type="line"/>
      <point x="710" y="1525" type="line"/>
      <point x="899" y="447" type="line"/>
      <point x="1013" y="447" type="line"/>
      <point x="1195" y="1525" type="line"/>
      <point x="1179" y="1005" type="line"/>
      <point x="1179" y="447" type="line"/>
      <point x="1274" y="447" type="line"/>
      <point x="1274" y="1761" type="line"/>
      <point x="1143" y="1761" type="line"/>
      <point x="956" y="562" type="line"/>
      <point x="763" y="1761" type="line"/>
      <point x="631" y="1761" type="line"/>
    </contour>
    <contour>
      <point x="260" y="447" type="line"/>
      <point x="369" y="447" type="line"/>
      <point x="369" y="1674" type="line"/>
      <point x="492" y="1674" type="line"/>
      <point x="492" y="1761" type="line"/>
      <point x="123" y="1761" type="line"/>
      <point x="123" y="1674" type="line"/>
      <point x="260" y="1674" type="line"/>
    </contour>
  </outline>
</glyph>
<glyph name="lessequal" format="1">
  <advance width="781"/>
  <unicode hex="2264"/>
  <outline>
    <contour>
      <point x="638" y="279" type="line"/>
      <point x="638" y="439" type="line"/>
      <point x="171" y="749" type="line"/>
      <point x="638" y="1042" type="line"/>
      <point x="638" y="1209" type="line"/>
      <point x="59" y="813" type="line"/>
      <point x="59" y="679" type="line"/>
    </contour>
    <contour>
      <point x="93" y="0" type="line"/>
      <point x="642" y="0" type="line"/>
      <point x="642" y="111" type="line"/>
      <point x="93" y="111" type="line"/>
    </contour>
  </outline>
</glyph>
<glyph name="greaterequal" format="1">
  <advance width="781"/>
  <unicode hex="2265"/>
  <outline>
    <contour>
      <point x="100" y="279" type="line"/>
      <point x="679" y="679" type="line"/>
      <point x="679" y="813" type="line"/>
      <point x="100" y="1209" type="line"/>
      <point x="100" y="1042" type="line"/>
      <point x="567" y="749" type="line"/>
      <point x="100" y="439" type="line"/>
    </contour>
    <contour>
      <point x="92" y="0" type="line"/>
      <point x="641" y="0" type="line"/>
      <point x="641" y="111" type="line"/>
      <point x="92" y="111" type="line"/>
    </contour>
  </outline>
</glyph>
<glyph name="uniFB04" format="1">
  <advance width="1900"/>
  <outline>
    <contour>
      <point x="130" y="0" type="line"/>
      <point x="486" y="0" type="line"/>
      <point x="486" y="1190" type="line"/>
      <point x="783" y="1190" type="line"/>
      <point x="783" y="0" type="line"/>
      <point x="1139" y="0" type="line"/>
      <point x="1139" y="1190" type="line"/>
      <point x="1253" y="1190" type="line"/>
      <point x="1253" y="1440" type="line"/>
      <point x="1139" y="1440" type="line"/>
      <point x="1139" y="1539"/>
      <point x="1223" y="1560"/>
      <point x="1303" y="1560" type="curve" smooth="yes"/>
      <point x="1349" y="1560"/>
      <point x="1395" y="1553"/>
      <point x="1421" y="1550" type="curve"/>
      <point x="1421" y="0" type="line"/>
      <point x="1785" y="0" type="line"/>
      <point x="1785" y="1729" type="line"/>
      <point x="1588" y="1758"/>
      <point x="1407" y="1781"/>
      <point x="1255" y="1781" type="curve" smooth="yes"/>
      <point x="968" y="1781"/>
      <point x="783" y="1701"/>
      <point x="783" y="1440" type="curve"/>
      <point x="486" y="1440" type="line"/>
      <point x="486" y="1493" type="line" smooth="yes"/>
      <point x="486" y="1541"/>
      <point x="522" y="1551"/>
      <point x="557" y="1551" type="curve" smooth="yes"/>
      <point x="572" y="1551"/>
      <point x="588" y="1550"/>
      <point x="600" y="1548" type="curve"/>
      <point x="600" y="1749" type="line"/>
      <point x="554" y="1768"/>
      <point x="490" y="1788"/>
      <point x="413" y="1788" type="curve" smooth="yes"/>
      <point x="252" y="1788"/>
      <point x="130" y="1697"/>
      <point x="130" y="1536" type="curve" smooth="yes"/>
      <point x="130" y="1440" type="line"/>
      <point x="34" y="1440" type="line"/>
      <point x="34" y="1190" type="line"/>
      <point x="130" y="1190" type="line"/>
    </contour>
  </outline>
</glyph>
